<svg width="88" height="92" viewBox="0 0 88 92" fill="none" xmlns="http://www.w3.org/2000/svg">
<path d="M44.0004 3.95215C20.2152 3.95215 0.933594 23.6622 0.933594 47.9759C0.933594 59.0387 4.92629 69.1474 11.5179 76.8812L25.4155 87.6998C31.0421 90.4555 37.3447 91.9997 44.0004 91.9997C67.7855 91.9997 87.0671 72.2896 87.0671 47.9759C87.0671 23.6622 67.7855 3.95215 44.0004 3.95215Z" fill="#FFC839"/>
<path d="M46.7893 75.6926L46.681 75.4903C46.0544 74.3198 46.4784 72.8379 47.6234 72.1973L47.7552 72.1237C46.5557 72.7948 45.0371 72.3407 44.3806 71.1147C43.724 69.8887 44.1682 68.3364 45.3676 67.6653C44.1681 68.3364 42.6497 67.8823 41.993 66.6561C41.3364 65.43 41.7806 63.8778 42.98 63.2065C41.7804 63.8776 40.2619 63.4236 39.6053 62.1974C38.9488 60.9714 39.393 59.4191 40.5925 58.7477L43.8316 56.9352L43.3379 56.0133C42.9752 55.336 42.3459 54.85 41.6096 54.6782C38.9175 54.0505 36.1227 55.1603 34.5511 57.4809C33.1353 59.63 34.5595 57.0093 30.9708 65.4228C30.7393 65.9841 30.3288 66.4488 29.806 66.7415L11.5176 76.8814C15.3591 81.3887 20.0832 85.0887 25.4152 87.7001L38.3344 80.5368C38.6886 80.3386 39.0825 80.2261 39.486 80.208L43.4134 80.0317C43.8169 80.0136 44.2108 79.9011 44.565 79.7029L49.7572 76.7973L49.5902 76.8392C48.5318 77.1822 47.3414 76.7235 46.7893 75.6926Z" fill="#FCAD6D"/>
<path d="M54.3955 74.2564L41.4991 50.1016L32.4365 52.2355L46.5451 78.6604C47.7348 80.8765 50.4566 81.687 52.6245 80.4709C54.7922 79.2548 55.5852 76.4725 54.3955 74.2564Z" fill="#3C58A0"/>
<path d="M40.5726 58.2013C39.5736 56.3303 40.5977 54.0013 42.6296 53.5228L43.2478 53.3773L41.4989 50.1016L32.4365 52.2357L46.5451 78.6606C47.7118 80.8339 50.352 81.6542 52.4983 80.5378L40.5726 58.2013Z" fill="#2A428C"/>
<path d="M46.5182 75.8438L46.4099 75.6415C45.7831 74.471 46.2073 72.9891 47.3523 72.3483L54.0214 68.6166C55.1665 67.9758 56.6162 68.4094 57.243 69.5799L57.3513 69.7822C57.9781 70.9527 57.5539 72.4346 56.4089 73.0753L49.7398 76.8071C48.5947 77.4479 47.1451 77.0143 46.5182 75.8438Z" fill="#F9BA8F"/>
<path d="M44.1102 71.2662C43.4537 70.04 43.8979 68.4877 45.0974 67.8166L53.0931 63.3425C54.2927 62.6714 55.8112 63.1255 56.4678 64.3515C57.1243 65.5775 56.6801 67.1298 55.4808 67.8011L47.485 72.2752C46.2853 72.9465 44.7668 72.4922 44.1102 71.2662Z" fill="#F9BA8F"/>
<path d="M41.7225 66.8082C41.066 65.582 41.5102 64.0297 42.7095 63.3586L51.2028 58.6062C52.4023 57.9351 53.9209 58.3892 54.5774 59.6152C55.2339 60.8413 54.7897 62.3937 53.5904 63.0648L45.0972 67.8172C43.8976 68.4883 42.3791 68.0342 41.7225 66.8082Z" fill="#F9BA8F"/>
<path d="M51.146 55.7403C50.4895 54.5142 48.9709 54.0601 47.7714 54.7312L40.322 58.8994C39.1224 59.5705 38.6782 61.1229 39.3349 62.349C39.9915 63.5752 41.5101 64.0293 42.7096 63.358L50.1589 59.1898C51.3584 58.5187 51.8026 56.9665 51.146 55.7403Z" fill="#F9BA8F"/>
<path d="M30.0879 66.5568C30.1993 68.1479 30.864 70.6095 33.8324 71.1828C35.8064 71.5641 37.8042 69 37.8042 69C40.3027 65.4318 40.315 62.7979 40.1456 61.6508C40.1308 61.5514 40.2619 61.5065 40.3092 61.5945L40.9464 62.7844C41.1695 63.2009 41.4613 63.554 41.799 63.8388C42.5993 64.4347 43.6948 64.545 44.6208 64.027C45.4774 63.5476 45.9701 62.6534 45.9919 61.7223C46.017 60.6514 45.5464 60.1829 43.3385 56.0133C43.1713 55.7013 42.9254 55.3969 42.6174 55.1585C42.6164 55.1578 42.6155 55.1569 42.6146 55.1561C42.3261 54.9333 41.9837 54.7653 41.6104 54.6782C38.9183 54.0505 36.1235 55.1603 34.5519 57.4809C33.1361 59.63 34.5603 57.0093 30.9715 65.4228C30.7833 65.8788 30.4758 66.2689 30.0879 66.5568Z" fill="#FCAD6D"/>
<path d="M42.8841 60.4705L44.02 62.5917C44.3192 63.1503 44.9787 63.3848 45.5454 63.162C45.8246 62.7351 45.9798 62.2345 45.9917 61.7223C46.0141 60.7711 45.6256 60.3292 44.4775 58.1406L43.3742 58.758C42.7786 59.0912 42.5582 59.8619 42.8841 60.4705Z" fill="#F9DFCD"/>
<path d="M34.8056 70.2534C34.6388 69.9388 34.6988 69.5372 34.9716 69.289C39.5037 65.167 38.8326 60.5855 38.8254 60.5397C38.7567 60.1099 39.0421 59.7047 39.4626 59.6344C39.8833 59.5643 40.2798 59.856 40.348 60.2858C40.3833 60.5077 41.1561 65.7751 35.9973 70.4672C35.6789 70.7567 35.1913 70.7276 34.9081 70.4024C34.8675 70.3558 34.8334 70.3059 34.8056 70.2534Z" fill="#FD995B"/>
<path d="M28.1612 51.5142L23.087 28.9958C23.0532 28.8456 23.0379 28.6957 23.037 28.5479C17.0475 30.282 13.381 36.5355 14.7938 42.8052C16.2065 49.0748 22.1801 53.0587 28.308 51.9394C28.2456 51.8061 28.1952 51.6645 28.1612 51.5142Z" fill="#E9EFFF"/>
<path d="M16.0293 46.0504C18.4366 50.3809 23.3212 52.8502 28.3083 51.9395C28.2457 51.8062 28.1953 51.6646 28.1614 51.5144L26.6194 44.6717C26.4846 44.6001 26.3454 44.5168 26.2019 44.4199C26.2023 44.4199 21.7849 49.1881 16.0293 46.0504Z" fill="#D3DCFB"/>
<path d="M56.4884 13.4443C51.8715 18.974 45.8148 23.0215 39.0488 25.1379C39.0573 25.1689 39.0675 25.1991 39.0747 25.2309L44.1489 47.7494C44.1562 47.7812 44.1598 47.8128 44.1656 47.8446C51.1556 46.7219 58.334 47.6529 64.8523 50.5608L75.7683 55.4303C75.1265 52.5819 64.8623 7.032 64.2203 4.18359L56.4884 13.4443Z" fill="#E9EFFF"/>
<path d="M59.7794 9.50252L65.2607 32.1507C66.1544 35.8433 63.2654 39.372 59.5545 39.0877C55.1693 38.7517 49.2821 38.8733 42.8977 40.596C42.8977 40.596 42.8198 40.7951 42.6377 41.0434L44.1489 47.7494C44.1561 47.7812 44.16 47.8128 44.1656 47.8446C51.1555 46.7219 58.3339 47.6529 64.8522 50.5608L75.7682 55.4303C75.1265 52.5819 64.8622 7.032 64.2203 4.18359L59.7794 9.50252Z" fill="#D3DCFB"/>
<path d="M81.2591 23.4013C76.0182 23.698 72.5732 21.2402 72.5732 21.2402C72.9854 23.0698 75.5647 34.5157 75.9797 36.3573C75.9797 36.3573 78.0256 32.6067 82.8654 30.5297C83.6429 30.196 84.0809 29.3477 83.8916 28.5077L83.0473 24.7608C82.858 23.9208 82.1011 23.3537 81.2591 23.4013Z" fill="#E9EFFF"/>
<path d="M83.395 26.3044C82.4845 26.6806 81.6784 27.0781 80.9796 27.4691C79.1125 28.5136 76.7872 27.4466 76.3095 25.3263C76.0992 24.3936 75.8915 23.4714 75.7174 22.6993C73.729 22.0632 72.5732 21.2402 72.5732 21.2402C72.9854 23.0698 75.5647 34.5157 75.9797 36.3573C75.9797 36.3573 78.0256 32.6067 82.8654 30.5297C83.6431 30.196 84.0809 29.3477 83.8916 28.5077L83.395 26.3044Z" fill="#D3DCFB"/>
<path d="M78.7245 58.5452C77.4472 58.846 76.1735 58.0314 75.8793 56.7258L63.7662 2.97089C63.4719 1.66528 64.2687 0.363264 65.546 0.0624672C66.8232 -0.23833 68.0969 0.576194 68.3912 1.8818L80.5042 55.6368C80.7985 56.9424 80.0017 58.2444 78.7245 58.5452Z" fill="#FF4155"/>
<path d="M80.5046 55.6374L75.7209 34.4082C75.5344 35.4021 74.795 36.2398 73.7683 36.4816C72.7152 36.7296 71.6653 36.2786 71.0801 35.427L75.8796 56.7263C76.1739 58.0319 77.4476 58.8464 78.7248 58.5456C80.002 58.245 80.7988 56.9428 80.5046 55.6374Z" fill="#E80054"/>
<path d="M37.0223 23.619L24.2433 26.628C23.1681 26.8812 22.4971 27.9775 22.7448 29.0766L27.8191 51.595C28.0667 52.6942 29.1392 53.3799 30.2144 53.1267L42.9934 50.1177C44.0686 49.8645 44.7396 48.7682 44.4917 47.6691L39.4175 25.1506C39.17 24.0517 38.0975 23.3658 37.0223 23.619Z" fill="#FF4155"/>
<path d="M39.6617 41.8135L29.6561 44.1696C29.6561 44.1696 28.4627 45.9465 26.2021 44.4203L27.819 51.5954C28.0667 52.6945 29.1391 53.3802 30.2144 53.127L42.9933 50.118C44.0685 49.8648 44.7393 48.7685 44.4917 47.6694L42.8978 40.5967C42.8978 40.5967 42.1081 42.6203 39.6617 41.8135Z" fill="#E80054"/>
<path d="M30.6896 26.7283C30.0893 26.7283 29.5467 26.3063 29.4061 25.6829L28.533 21.808C28.3695 21.0827 28.8123 20.3591 29.5217 20.1922C30.231 20.0242 30.9391 20.4777 31.1024 21.2029L31.9755 25.0779C32.1389 25.8031 31.6962 26.5267 30.9867 26.6937C30.8872 26.717 30.7875 26.7283 30.6896 26.7283Z" fill="#BEC8F7"/>
<path d="M27.8976 23.0256C27.2973 23.0256 26.7546 22.6035 26.614 21.9802C26.4505 21.2549 26.8933 20.5313 27.6028 20.3644L31.3209 19.489C32.0306 19.3213 32.7381 19.7743 32.9015 20.4997C33.065 21.2249 32.6222 21.9485 31.9128 22.1155L28.1946 22.9909C28.0952 23.0144 27.9957 23.0256 27.8976 23.0256Z" fill="#E9EFFF"/>
<path d="M26.5339 30.3146C26.3705 29.5894 26.8133 28.8658 27.5227 28.6989L34.959 26.948C35.6684 26.7802 36.3761 27.2335 36.5396 27.9588C36.7031 28.684 36.2603 29.4076 35.5508 29.5745L28.1146 31.3254C27.4067 31.4925 26.6976 31.0411 26.5339 30.3146Z" fill="#CC0053"/>
<path d="M27.574 34.9326C27.4105 34.2074 27.8533 33.4838 28.5628 33.3168L35.999 31.5659C36.7085 31.3988 37.4162 31.8515 37.5796 32.5767C37.7431 33.3019 37.3003 34.0255 36.5909 34.1925L29.1546 35.9433C28.4469 36.1104 27.7376 35.6591 27.574 34.9326Z" fill="#CC0053"/>
<path d="M28.615 39.5509C28.4515 38.8257 28.8941 38.1021 29.6038 37.9352L37.04 36.1841C37.7497 36.017 38.4572 36.4696 38.6207 37.1949C38.7841 37.9201 38.3415 38.6437 37.6319 38.8106L30.1956 40.5617C29.4879 40.7288 28.7788 40.2774 28.615 39.5509Z" fill="#CC0053"/>
<path d="M29.656 44.1692C29.4925 43.444 29.9352 42.7204 30.6448 42.5534L38.081 40.8024C38.7907 40.6349 39.4984 41.0879 39.6617 41.8131C39.8251 42.5383 39.3825 43.2619 38.6729 43.4289L31.2366 45.1799C30.529 45.347 29.8197 44.8958 29.656 44.1692Z" fill="#CC0053"/>
<path d="M30.697 48.7883C30.5336 48.0631 30.9763 47.3395 31.6858 47.1725L39.1221 45.4216C39.8312 45.2538 40.5394 45.707 40.7027 46.4324C40.8662 47.1576 40.4234 47.8812 39.7139 48.0481L32.2777 49.799C31.57 49.9661 30.8607 49.5149 30.697 48.7883Z" fill="#CC0053"/>
<path d="M38.3344 80.537C26.3607 79.1576 30.0876 66.5572 30.0876 66.5566C29.9976 66.6235 29.9045 66.6866 29.806 66.7417L11.5176 76.8817C15.3591 81.3889 20.0832 85.0889 25.4154 87.7003L38.3344 80.537Z" fill="#FD995B"/>
</svg>
