<svg width="90" height="92" viewBox="0 0 90 92" fill="none" xmlns="http://www.w3.org/2000/svg">
<path d="M3.99082 64.0145L7.04515 70.2881C10.3616 75.9175 14.893 80.7452 20.2811 84.4083H69.7196C75.2711 80.6343 79.9145 75.6248 83.2553 69.7749L86.1614 63.6165C88.0095 58.7559 89.0242 53.4848 89.0242 47.9759C89.0242 23.6622 69.3141 3.95215 45.0004 3.95215C20.6867 3.95215 0.976562 23.6622 0.976562 47.9759C0.976562 53.6352 2.04552 59.0445 3.99082 64.0145Z" fill="#FFC839"/>
<path d="M66.4323 62.4845C67.562 63.3619 68.9562 63.8382 70.3923 63.8382C71.8282 63.8382 73.2224 63.3617 74.3521 62.4845C75.1855 61.8372 76.074 60.9568 76.8531 59.8492C76.6287 59.7838 76.4021 59.7216 76.1721 59.6641C75.9322 59.6039 75.7213 59.4596 75.5853 59.2677C74.9578 58.3824 74.7839 57.0139 74.7499 56.0215C74.3097 56.5341 73.8477 56.963 73.4064 57.3057C71.6361 58.6805 69.1462 58.6787 67.3782 57.3057C66.9369 56.963 66.4749 56.5341 66.0347 56.0215C65.9997 57.036 65.8191 58.4437 65.1569 59.3261C65.0439 59.4767 64.8698 59.5998 64.6612 59.6515C64.415 59.7124 64.1724 59.7795 63.9316 59.8497C64.7106 60.957 65.599 61.8374 66.4323 62.4845Z" fill="#FCAD6D"/>
<path d="M67.3782 57.3057C66.9369 56.963 66.4749 56.5341 66.0347 56.0215C65.9997 57.036 65.8191 58.4437 65.1569 59.3261C65.0439 59.4767 64.8698 59.5998 64.6612 59.6515C64.415 59.7124 64.1724 59.7795 63.9316 59.8497C64.7108 60.9571 65.5991 61.8376 66.4324 62.4847C66.9304 62.8715 67.4801 63.1801 68.0619 63.4047C69.622 62.0974 70.2504 60.1173 70.469 58.3332C69.3785 58.3499 68.2837 58.009 67.3782 57.3057Z" fill="#FCAD6D"/>
<path d="M86.1621 63.6165C85.2551 62.8961 84.081 62.3957 82.5599 62.2714C81.9977 62.2254 81.6985 62.0072 81.0358 61.6336C79.6553 60.8551 78.2259 60.2342 76.6682 59.7976C75.9074 60.8912 75.0344 61.7573 74.217 62.3919C73.1262 63.239 71.7799 63.6991 70.3935 63.6991C69.007 63.6991 67.6608 63.239 66.5699 62.3919C65.7523 61.7569 64.879 60.8906 64.1182 59.7969C62.5672 60.2324 61.1277 60.8572 59.7511 61.6336C59.0884 62.0074 58.7893 62.2255 58.2268 62.2714C53.4457 62.6622 52.0799 66.7598 51.7275 69.7751H83.2562C84.3769 67.8122 85.3494 65.7539 86.1621 63.6165Z" fill="#FF4155"/>
<path d="M66.5082 64.3309C67.1662 64.0655 67.7205 63.7121 68.1874 63.2966C67.609 63.0785 67.0625 62.7754 66.5689 62.3919C65.7513 61.7569 64.8781 60.8906 64.1173 59.7969C62.5662 60.2324 61.1267 60.8572 59.7501 61.6336C59.0875 62.0074 58.7883 62.2255 58.2259 62.2714C53.4447 62.6622 52.0789 66.7598 51.7266 69.7751H58.4891C58.6413 64.2853 61.3323 66.4182 66.5082 64.3309Z" fill="#E80054"/>
<path d="M15.7213 62.9487C16.8303 63.8098 18.1986 64.2777 19.6083 64.2777C21.0178 64.2777 22.3863 63.81 23.4951 62.9487C24.3201 62.3082 25.2004 61.4351 25.9698 60.3348C25.7777 60.28 25.5843 60.227 25.3881 60.1778C25.1482 60.1178 24.9373 59.9733 24.8013 59.7814C24.1738 58.8961 24 57.5276 23.9659 56.5352C23.5257 57.0478 23.0637 57.4767 22.6224 57.8194C20.8521 59.1942 18.3622 59.1924 16.5942 57.8194C16.1527 57.4767 15.6909 57.0478 15.2507 56.5352C15.2156 57.5497 15.0351 58.9573 14.3729 59.8398C14.2599 59.9904 14.0858 60.1135 13.8772 60.165C13.6646 60.2177 13.4545 60.2743 13.2461 60.3338C14.0155 61.4345 14.8962 62.308 15.7213 62.9487Z" fill="#FCAD6D"/>
<path d="M19.5077 58.8448C18.4763 58.8238 17.4506 58.4834 16.5942 57.8184C16.1527 57.4757 15.6909 57.0468 15.2507 56.5342C15.2156 57.5487 15.0351 58.9564 14.3729 59.8388C14.2599 59.9894 14.0858 60.1125 13.8772 60.1642C13.6646 60.2169 13.4545 60.2735 13.2461 60.333C14.0157 61.4335 14.8963 62.307 15.7215 62.9478C15.9773 63.1465 16.2474 63.3231 16.5283 63.4791C18.4987 61.9728 19.2611 60.26 19.5077 58.8448Z" fill="#FD995B"/>
<path d="M31.7744 62.785C31.2122 62.739 30.913 62.5209 30.2501 62.1473C28.8696 61.3689 27.4402 60.7479 25.8825 60.3113C25.1217 61.4047 24.2487 62.2709 23.4313 62.9056C22.3405 63.7526 20.9942 64.2128 19.6078 64.2128C18.2213 64.2128 16.8751 63.7526 15.7842 62.9056C14.9666 62.2708 14.0933 61.4043 13.3325 60.3105C11.7815 60.7461 10.3422 61.3709 8.96542 62.1473C8.30273 62.5211 8.00355 62.7392 7.44113 62.785C6.00291 62.9025 4.87573 63.3571 3.99023 64.0152C4.84411 66.1969 5.86869 68.2928 7.04456 70.2888H38.2735C37.9213 67.2734 36.5555 63.176 31.7744 62.785Z" fill="#73C3F9"/>
<path d="M8.65959 70.2888C8.76777 65.6313 9.75964 67.4555 15.2371 64.3316C15.742 64.0436 16.1892 63.7428 16.5874 63.4337C16.3078 63.2792 16.0388 63.1034 15.7842 62.9058C14.9666 62.2709 14.0933 61.4045 13.3325 60.3105C11.7815 60.7463 10.3422 61.3711 8.96542 62.1473C8.30273 62.5211 8.00355 62.7392 7.44113 62.785C6.00291 62.9025 4.87573 63.3571 3.99023 64.015C4.84411 66.1968 5.86869 68.2926 7.04456 70.2888H8.65959Z" fill="#4FABF7"/>
<path d="M38.5164 83.2396C40.3663 84.6762 42.6492 85.4564 45.0005 85.4564C47.3515 85.4564 49.6344 84.6762 51.4843 83.2396C52.8438 82.1838 54.293 80.7483 55.5654 78.944C55.1794 78.8305 54.7895 78.7223 54.3933 78.6229C54.0034 78.5252 53.6607 78.2907 53.4395 77.9787C52.4198 76.54 52.1373 74.316 52.0818 72.7031C51.3664 73.5363 50.6157 74.2332 49.8984 74.7902C47.0216 77.0242 42.9748 77.0214 40.1018 74.7902C39.3845 74.2332 38.6338 73.5363 37.9184 72.7031C37.8617 74.3518 37.5682 76.6394 36.4921 78.0736C36.3084 78.3184 36.0256 78.5183 35.6864 78.6024C35.2637 78.707 34.8479 78.8229 34.4355 78.9446C35.7081 80.7484 37.1571 82.184 38.5164 83.2396Z" fill="#FCAD6D"/>
<path d="M44.6542 76.4568C43.0399 76.3873 41.443 75.8317 40.1018 74.7902C39.3845 74.2332 38.6338 73.5363 37.9184 72.7031C37.8617 74.3518 37.5682 76.6394 36.4921 78.0736C36.3084 78.3184 36.0256 78.5184 35.6864 78.6024C35.2637 78.707 34.8479 78.8229 34.4355 78.9446C35.7079 80.7484 37.1569 82.184 38.5163 83.2396C39.1948 83.7665 39.9318 84.2042 40.7088 84.5483C43.0368 82.2312 44.1437 79.1579 44.6542 76.4568Z" fill="#FD995B"/>
<path d="M62.2954 81.8237C60.052 80.5585 57.7288 79.5495 55.1976 78.8399C53.9613 80.6171 52.5425 82.0245 51.2143 83.0561C49.4415 84.4329 47.2536 85.1806 45.0005 85.1806C42.7472 85.1806 40.5595 84.4329 38.7867 83.0561C37.4581 82.0244 36.0389 80.6163 34.8025 78.8389C32.2819 79.5468 29.9427 80.5621 27.7054 81.8237C26.6284 82.431 26.1421 82.7855 25.2284 82.8601C23.2355 83.0231 21.6099 83.5842 20.2812 84.4085C27.3281 89.1991 35.8368 91.9999 45.0003 91.9999C54.1638 91.9999 62.6726 89.1991 69.7196 84.4085C68.3911 83.5842 66.7655 83.0231 64.7724 82.8601C63.8585 82.7855 63.3725 82.431 62.2954 81.8237Z" fill="#3C58A0"/>
<path d="M38.7867 83.0561C37.4581 82.0244 36.0389 80.6163 34.8025 78.8389C32.2819 79.5468 29.9427 80.5621 27.7054 81.8237C26.6283 82.431 26.1421 82.7855 25.2284 82.8601C23.2355 83.0231 21.6099 83.5842 20.2812 84.4085C23.6509 86.6991 27.3555 88.5335 31.3054 89.8257C32.3969 89.2458 34.4426 88.5632 38.2743 86.3963C39.3051 85.8134 40.1804 85.1098 40.9254 84.3278C40.1669 83.9954 39.448 83.5695 38.7867 83.0561Z" fill="#2A428C"/>
<path d="M43.8785 9.99979C43.8785 7.6847 45.7726 5.79061 48.0876 5.79061H68.1284V4.20918C68.1284 1.89409 66.2341 0 63.919 0H42.1574C39.8423 0 37.9482 1.89409 37.9482 4.20918V21.4881C37.9482 23.8032 39.8423 25.6973 42.1574 25.6973H43.8783V9.99979H43.8785Z" fill="#4FABF7"/>
<path d="M54.1679 0H42.1574C39.8423 0 37.9482 1.89409 37.9482 4.20918V21.4881C37.9482 23.8032 39.8423 25.6973 42.1574 25.6973H43.8783V9.99979C43.8783 7.6847 45.7724 5.79061 48.0875 5.79061H54.0786C54.1318 5.61721 54.1679 5.52198 54.1679 5.52198C51.1817 2.53575 54.1679 0 54.1679 0V0Z" fill="#1886EA"/>
<path d="M69.5803 5.52148H47.8186C45.5035 5.52148 43.6094 7.41557 43.6094 9.73066V27.0096C43.6094 29.3247 45.5035 31.2188 47.8186 31.2188C48.4103 31.2188 48.7382 31.8983 48.3763 32.3664C47.9907 32.8652 47.5585 33.3303 47.0788 33.7529C46.1836 34.5414 46.6872 36.158 47.8223 36.1544C50.7074 36.1454 53.4113 34.681 55.2515 32.2956C55.7687 31.6252 56.5559 31.2186 57.4025 31.2186H69.58C71.8951 31.2186 73.7891 29.3245 73.7891 27.0094V9.73066C73.7895 7.41557 71.8954 5.52148 69.5803 5.52148Z" fill="#E9EFFF"/>
<path d="M47.8186 5.52166C45.5035 5.52166 43.6094 7.41575 43.6094 9.73084V27.0098C43.6094 29.3249 45.5035 31.219 47.8186 31.219C48.4103 31.219 48.7382 31.8985 48.3763 32.3666C47.9907 32.8654 47.5585 33.3305 47.0788 33.7531C46.1836 34.5416 46.6872 36.1582 47.8223 36.1546C50.7074 36.1456 53.4113 34.6812 55.2515 32.2958C55.7687 31.6254 56.5559 31.2188 57.4025 31.2188H62.8397C56.2991 27.3974 59.1732 20.6638 59.1732 20.6638L58.3184 16.8078C51.4181 12.7624 54.1673 5.52148 54.1673 5.52148H47.8186V5.52166Z" fill="#BEC8F7"/>
<path d="M51.8751 20.7816C52.9621 20.5246 53.635 19.4352 53.378 18.3482C53.1211 17.2612 52.0317 16.5884 50.9447 16.8453C49.8577 17.1023 49.1849 18.1917 49.4418 19.2787C49.6987 20.3656 50.7882 21.0385 51.8751 20.7816Z" fill="#1886EA"/>
<path d="M58.7736 20.7796C59.8606 20.5227 60.5334 19.4332 60.2765 18.3463C60.0195 17.2593 58.9301 16.5864 57.8431 16.8434C56.7562 17.1003 56.0833 18.1898 56.3402 19.2767C56.5972 20.3637 57.6866 21.0366 58.7736 20.7796Z" fill="#1886EA"/>
<path d="M66.6408 20.267C67.4306 19.4772 67.4306 18.1966 66.6408 17.4068C65.851 16.617 64.5705 16.617 63.7807 17.4068C62.9909 18.1966 62.9909 19.4772 63.7807 20.267C64.5705 21.0568 65.851 21.0568 66.6408 20.267Z" fill="#4FABF7"/>
<path d="M42.632 39.1975C35.52 40.1665 34.844 44.1989 34.8408 45.6783C34.8401 45.9886 34.6683 46.2761 34.3892 46.4117C30.6898 48.2115 32.6844 56.885 32.6844 56.885C33.056 56.9098 33.6132 57.2286 33.9032 57.3691C33.9742 56.9271 34.0901 56.492 34.2539 56.0714C34.3786 55.7508 34.5346 55.427 34.7296 55.1212C35.0679 54.5904 35.2219 53.9644 35.1759 53.3383C35.0429 51.5289 34.9387 48.1317 37.3271 47.057C39.3506 46.1465 41.8328 46.6737 43.4157 47.2C44.4437 47.5418 45.5572 47.5418 46.5852 47.2C48.168 46.6737 50.6501 46.1465 52.6737 47.057C55.0555 48.1287 54.9575 51.5086 54.8262 53.3229C54.7805 53.9536 54.9304 54.5863 55.2713 55.1212C55.4725 55.4369 55.6323 55.7719 55.7589 56.1023C55.9165 56.5132 56.0285 56.9378 56.0978 57.3691C56.4635 57.1919 57.1542 56.8307 57.6013 56.8938C57.6561 54.9972 57.8311 52.9527 57.8311 52.9527C59.9386 42.6302 50.2898 38.154 42.632 39.1975Z" fill="#2A428C"/>
<path d="M42.632 39.1979C35.52 40.1669 34.844 44.1993 34.8408 45.6787C34.8401 45.989 34.6683 46.2765 34.3892 46.4121C30.6898 48.2119 32.6844 56.8854 32.6844 56.8854C33.056 56.9102 33.6132 57.229 33.9032 57.3695C33.9742 56.9275 34.0901 56.4924 34.2539 56.0718C34.3786 55.7512 34.5346 55.4274 34.7296 55.1216C35.0679 54.5908 35.2219 53.9648 35.1759 53.3387C35.0429 51.5293 34.9387 48.1321 37.3271 47.0574C39.3506 46.1469 41.8328 46.6741 43.4157 47.2004C43.8487 47.3444 44.297 47.424 44.7475 47.4468C44.6785 47.3284 44.6048 47.2107 44.5224 47.0948C41.4713 42.8063 45.7124 39.6814 46.5309 39.1353C45.2183 39.0047 43.8979 39.0254 42.632 39.1979Z" fill="#1C2E7A"/>
<path d="M58.2322 57.1402C57.6782 56.6326 56.5749 56.8899 56.0977 57.2007C56.2023 57.8516 56.2082 58.5175 56.1178 59.175L55.5549 63.2753C55.5549 63.6057 55.5444 63.93 55.5254 64.2488C56.8982 64.6628 57.5801 63.4305 57.6949 62.5847C57.7443 62.2207 57.8252 61.8618 57.9373 61.5116C58.3026 60.371 59.6201 58.412 58.2322 57.1402Z" fill="#FCAD6D"/>
<path d="M31.7691 57.1402C32.3231 56.6326 33.4263 56.8899 33.9034 57.2007C33.7988 57.8516 33.7929 58.5175 33.8833 59.175L34.4463 63.2753C34.4463 63.6057 34.4567 63.93 34.4759 64.2488C33.1031 64.6628 32.4212 63.4305 32.3062 62.5847C32.2568 62.2207 32.1759 61.8618 32.0638 61.5116C31.6987 60.371 30.3812 58.412 31.7691 57.1402Z" fill="#FD995B"/>
<path d="M55.9274 55.9339C55.8007 55.6032 55.641 55.2685 55.4397 54.9528C55.0989 54.4178 54.9488 53.7853 54.9946 53.1545C55.126 51.3402 55.0555 47.7919 52.674 46.7202C50.6505 45.8097 48.1687 46.3369 46.5858 46.8633C45.5578 47.205 44.4437 47.205 43.4157 46.8633C41.8329 46.3369 39.3509 45.8097 37.3276 46.7202C34.9392 47.7949 34.875 51.3605 35.008 53.1699C35.054 53.796 34.9 54.422 34.5616 54.9528C34.3667 55.2586 34.2107 55.5824 34.086 55.903C33.6814 56.9426 33.5633 58.07 33.715 59.174L34.2781 63.2754C34.2781 69.1716 37.4255 73.1792 40.1028 75.2582C41.5003 76.3433 43.2249 76.9329 45.001 76.9329C46.7772 76.9329 48.5016 76.3435 49.8991 75.2582C52.5764 73.1792 55.7238 69.1714 55.7238 63.2754L56.2868 59.1751C56.4364 58.0819 56.3227 56.9653 55.9274 55.9339Z" fill="#F9BA8F"/>
<path d="M47.922 75.2582C45.2446 73.1792 42.0972 69.1714 42.0972 63.2754L41.5341 59.174C41.3824 58.07 41.5005 56.9426 41.9051 55.903C42.0298 55.5824 42.1858 55.2588 42.3807 54.9528C42.7191 54.422 42.8731 53.7958 42.8271 53.1699C42.7069 51.5339 42.7482 48.4625 44.5226 47.0943C44.1482 47.0586 43.7766 46.9833 43.4157 46.8633C41.8329 46.3369 39.3509 45.8097 37.3276 46.7202C34.9392 47.7949 34.875 51.3605 35.008 53.1699C35.054 53.796 34.9 54.422 34.5616 54.9528C34.3667 55.2586 34.2107 55.5824 34.086 55.903C33.6814 56.9426 33.5633 58.07 33.715 59.174L34.2781 63.2754C34.2781 69.1716 37.4255 73.1792 40.1028 75.2582C41.5003 76.3433 43.2249 76.9329 45.001 76.9329C46.3783 76.9329 47.7238 76.5769 48.9106 75.9117C48.5667 75.7191 48.2357 75.5018 47.922 75.2582Z" fill="#FCAD6D"/>
<path d="M68.9352 35.4043C64.5587 36.0007 64.1427 38.482 64.1407 39.3923C64.1404 39.5833 64.0345 39.7601 63.8629 39.8437C61.5865 40.9511 62.8137 46.2885 62.8137 46.2885C63.0423 46.3038 63.3853 46.5 63.5638 46.5865C63.6074 46.3144 63.6788 46.0467 63.7796 45.7879C63.8563 45.5906 63.9522 45.3915 64.0723 45.2032C64.2805 44.8765 64.3752 44.4913 64.347 44.106C64.2653 42.9925 64.2009 40.902 65.6708 40.2408C66.916 39.6805 68.4434 40.0049 69.4174 40.3288C70.0499 40.5393 70.7353 40.5393 71.3678 40.3288C72.3419 40.0049 73.8692 39.6805 75.1144 40.2408C76.58 40.9002 76.5198 42.9801 76.4389 44.0965C76.4107 44.4847 76.5031 44.8739 76.7127 45.203C76.8366 45.3973 76.9348 45.6034 77.0128 45.8068C77.1097 46.0598 77.1787 46.3211 77.2213 46.5863C77.4462 46.4772 77.8714 46.2549 78.1465 46.2939C78.1801 45.1269 78.2879 43.8687 78.2879 43.8687C79.5851 37.5167 73.6475 34.7623 68.9352 35.4043Z" fill="#2A428C"/>
<path d="M68.9352 35.405C64.5587 36.0014 64.1427 38.4827 64.1407 39.393C64.1404 39.584 64.0345 39.7608 63.8629 39.8443C61.5865 40.9517 62.8137 46.2892 62.8137 46.2892C63.0423 46.3045 63.3853 46.5007 63.5638 46.5871C63.6074 46.3151 63.6788 46.0473 63.7796 45.7886C63.8563 45.5913 63.9522 45.392 64.0723 45.2039C64.2805 44.8772 64.3752 44.4919 64.347 44.1067C64.2653 42.9932 64.2009 40.9027 65.6708 40.2414C66.916 39.6812 68.4433 40.0055 69.4174 40.3295C69.6839 40.4181 69.9597 40.4671 70.237 40.4811C70.1944 40.4082 70.1491 40.336 70.0984 40.2646C68.2209 37.6257 70.8307 35.7027 71.3345 35.3667C70.5266 35.286 69.7141 35.2988 68.9352 35.405Z" fill="#1C2E7A"/>
<path d="M78.5358 46.4455C78.195 46.1332 77.5159 46.2915 77.2223 46.4827C77.2866 46.8832 77.2902 47.2929 77.2347 47.6976L76.8883 50.2208C76.8883 50.4242 76.8818 50.6236 76.8701 50.8198C77.7148 51.0746 78.1346 50.3162 78.2052 49.7958C78.2356 49.5717 78.2853 49.3509 78.3543 49.1354C78.5793 48.4336 79.3899 47.2281 78.5358 46.4455Z" fill="#FCAD6D"/>
<path d="M62.2507 46.4455C62.5915 46.1332 63.2706 46.2915 63.5642 46.4827C63.4998 46.8832 63.4963 47.2929 63.5518 47.6976L63.8982 50.2208C63.8982 50.4242 63.9047 50.6236 63.9164 50.8198C63.0717 51.0746 62.6519 50.3162 62.5813 49.7958C62.5509 49.5717 62.5012 49.3509 62.4322 49.1354C62.2074 48.4336 61.3966 47.2281 62.2507 46.4455Z" fill="#FD995B"/>
<path d="M77.1173 45.7036C77.0393 45.5002 76.941 45.2941 76.8172 45.0998C76.6075 44.7706 76.5152 44.3814 76.5434 43.9933C76.6242 42.8769 76.5809 40.6933 75.1152 40.0339C73.8702 39.4736 72.3428 39.798 71.3687 40.1219C70.7362 40.3323 70.0507 40.3323 69.418 40.1219C68.444 39.7981 66.9166 39.4736 65.6716 40.0339C64.2017 40.6951 64.1624 42.8893 64.2441 44.0028C64.2725 44.3881 64.1776 44.7733 63.9694 45.1C63.8493 45.2883 63.7534 45.4874 63.6767 45.6847C63.4276 46.3244 63.355 47.0182 63.4483 47.6976L63.7947 50.2213C63.7947 53.8495 65.7316 56.3157 67.3789 57.5951C68.2389 58.2628 69.3002 58.6256 70.393 58.6256C71.4861 58.6256 72.5473 58.2628 73.4071 57.5951C75.0547 56.3157 76.9913 53.8495 76.9913 50.2213L77.3378 47.6981C77.4307 47.0252 77.3606 46.3382 77.1173 45.7036Z" fill="#F9BA8F"/>
<path d="M72.1906 57.5953C70.5431 56.3159 68.6064 53.8497 68.6064 50.2215L68.2599 47.6977C68.1667 47.0183 68.2393 46.3246 68.4883 45.6849C68.5651 45.4876 68.661 45.2885 68.781 45.1002C68.9893 44.7735 69.084 44.3883 69.0558 44.003C68.9818 42.9962 69.0073 41.1061 70.0992 40.2642C69.8687 40.2423 69.6401 40.1958 69.418 40.1219C68.4439 39.798 66.9166 39.4736 65.6716 40.0339C64.2017 40.6951 64.1624 42.8893 64.2441 44.0028C64.2725 44.3881 64.1776 44.7733 63.9694 45.1C63.8493 45.2883 63.7534 45.4874 63.6767 45.6847C63.4276 46.3244 63.355 47.0182 63.4483 47.6976L63.7947 50.2213C63.7947 53.8495 65.7316 56.3157 67.3789 57.5951C68.2389 58.2628 69.3002 58.6256 70.393 58.6256C71.2406 58.6256 72.0686 58.4066 72.7989 57.9973C72.5875 57.8788 72.3838 57.7452 72.1906 57.5953Z" fill="#FCAD6D"/>
<path d="M18.15 35.917C13.7735 36.5134 13.3576 38.9947 13.3556 39.905C13.3552 40.096 13.2494 40.2728 13.0778 40.3564C10.8013 41.4638 12.0286 46.8012 12.0286 46.8012C12.2572 46.8165 12.6 47.0127 12.7786 47.0992C12.8223 46.8271 12.8936 46.5594 12.9944 46.3006C13.0711 46.1033 13.1671 45.9042 13.2871 45.7159C13.4954 45.3893 13.5901 45.004 13.5619 44.6188C13.4801 43.5052 13.4158 41.4147 14.8856 40.7535C16.1307 40.1932 17.6582 40.5176 18.6323 40.8415C19.2648 41.052 19.9501 41.052 20.5826 40.8415C21.5567 40.5176 23.084 40.1932 24.3293 40.7535C25.7948 41.4129 25.7346 43.4928 25.6538 44.6092C25.6255 44.9974 25.7179 45.3867 25.9276 45.7157C26.0514 45.91 26.1497 46.1161 26.2277 46.3195C26.3245 46.5725 26.3935 46.8338 26.4361 47.099C26.6611 46.9899 27.0862 46.7676 27.3613 46.8066C27.3951 45.6396 27.5027 44.3814 27.5027 44.3814C28.7997 38.0294 22.8621 35.275 18.15 35.917Z" fill="#2A428C"/>
<path d="M18.15 35.9176C13.7735 36.514 13.3576 38.9953 13.3556 39.9056C13.3552 40.0966 13.2494 40.2734 13.0778 40.357C10.8013 41.4644 12.0286 46.8018 12.0286 46.8018C12.2572 46.8171 12.6 47.0133 12.7786 47.0998C12.8223 46.8277 12.8936 46.56 12.9944 46.3012C13.0711 46.1039 13.1671 45.9048 13.2871 45.7165C13.4954 45.3898 13.5901 45.0046 13.5619 44.6193C13.4801 43.5058 13.4158 41.4153 14.8856 40.7541C16.1307 40.1938 17.6582 40.5182 18.6323 40.8421C18.8988 40.9307 19.1746 40.9798 19.4518 40.9936C19.4093 40.9207 19.364 40.8484 19.3133 40.7771C17.4357 38.1382 20.0455 36.2152 20.5494 35.8792C19.7413 35.7989 18.929 35.8114 18.15 35.9176Z" fill="#1C2E7A"/>
<path d="M27.7495 46.9582C27.4086 46.6459 26.7296 46.8042 26.4362 46.9954C26.5005 47.3959 26.5041 47.8056 26.4486 48.2103L26.1021 50.7335C26.1021 50.9369 26.0957 51.1363 26.084 51.3325C26.9287 51.5873 27.3484 50.8291 27.4191 50.3085C27.4494 50.0844 27.4992 49.8636 27.5682 49.6481C27.7928 48.9463 28.6036 47.7409 27.7495 46.9582Z" fill="#FCAD6D"/>
<path d="M11.4656 46.9582C11.8064 46.6459 12.4855 46.8042 12.7791 46.9954C12.7147 47.3959 12.7111 47.8056 12.7667 48.2103L13.1131 50.7335C13.1131 50.9369 13.1196 51.1363 13.1313 51.3325C12.2865 51.5873 11.8668 50.8291 11.7962 50.3085C11.7658 50.0844 11.716 49.8636 11.647 49.6481C11.4221 48.9463 10.6115 47.7409 11.4656 46.9582Z" fill="#FD995B"/>
<path d="M26.3323 46.2163C26.2543 46.0129 26.156 45.8068 26.0322 45.6125C25.8224 45.2833 25.7302 44.8941 25.7582 44.506C25.8391 43.3896 25.7958 41.206 24.3301 40.5466C23.085 39.9863 21.5577 40.3107 20.5836 40.6346C19.9511 40.845 19.2654 40.845 18.6329 40.6346C17.6588 40.3107 16.1316 39.9863 14.8864 40.5466C13.4167 41.2078 13.3772 43.402 13.459 44.5155C13.4873 44.9008 13.3925 45.286 13.1842 45.6127C13.0642 45.801 12.9682 46.0001 12.8915 46.1974C12.6425 46.8371 12.5699 47.5309 12.6631 48.2103L13.0096 50.734C13.0096 54.3622 14.9464 56.8284 16.5938 58.1078C17.4538 58.7755 18.515 59.1383 19.6079 59.1383C20.7009 59.1383 21.7621 58.7755 22.6219 58.1078C24.2695 56.8284 26.2062 54.3624 26.2062 50.734L26.5526 48.2108C26.6455 47.538 26.5754 46.8509 26.3323 46.2163Z" fill="#F9BA8F"/>
<path d="M21.4055 58.1068C19.7579 56.8274 17.8212 54.3614 17.8212 50.7329L17.4748 48.2092C17.3815 47.5298 17.4541 46.8361 17.7032 46.1964C17.7799 45.9993 17.8759 45.8 17.9959 45.6117C18.2041 45.285 18.2988 44.8997 18.2706 44.5145C18.1966 43.5077 18.2221 41.6177 19.3141 40.7759C19.0835 40.7538 18.855 40.7075 18.6329 40.6336C17.6588 40.3098 16.1316 39.9853 14.8864 40.5456C13.4167 41.2068 13.3772 43.401 13.459 44.5145C13.4873 44.8997 13.3925 45.285 13.1842 45.6117C13.0642 45.8 12.9682 45.9991 12.8915 46.1964C12.6425 46.8361 12.5699 47.5298 12.6631 48.2092L13.0096 50.7329C13.0096 54.3612 14.9464 56.8274 16.5938 58.1068C17.4538 58.7745 18.515 59.1373 19.6079 59.1373C20.4554 59.1373 21.2834 58.9182 22.0137 58.5089C21.8022 58.3905 21.5984 58.2568 21.4055 58.1068Z" fill="#FCAD6D"/>
</svg>
