<svg width="88" height="87" viewBox="0 0 88 87" fill="none" xmlns="http://www.w3.org/2000/svg">
<path d="M44.4203 79.0168L77.1819 71.3877C83.3558 63.9344 87.0671 54.3673 87.0671 43.933C87.0671 20.1478 67.7855 0.866211 44.0004 0.866211C20.2152 0.866211 0.933594 20.1478 0.933594 43.933C0.933594 54.4674 4.71799 64.1165 10.9987 71.6002L44.4203 79.0168Z" fill="#FFC839"/>
<path d="M19.6701 73.9102C21.4433 75.2872 23.6318 76.0352 25.8857 76.0352C28.1396 76.0352 30.3279 75.2872 32.1011 73.9102C33.4118 72.8924 34.8096 71.5069 36.0344 69.7635C35.692 69.664 35.3457 69.5701 34.995 69.4822C34.6169 69.3875 34.2847 69.16 34.0701 68.8575C33.0811 67.4623 32.8071 65.3055 32.7535 63.7412C32.0597 64.5493 31.3316 65.225 30.636 65.7652C27.846 67.9318 23.9217 67.929 21.1352 65.7652C20.4395 65.225 19.7115 64.5491 19.0177 63.7412C18.9625 65.3401 18.6779 67.5585 17.6343 68.9494C17.4563 69.1867 17.1819 69.3806 16.853 69.4622C16.4766 69.5554 16.1054 69.657 15.7373 69.764C16.9618 71.5072 18.3594 72.8924 19.6701 73.9102Z" fill="#FCAD6D"/>
<path d="M25.6329 67.3839C24.0393 67.3322 22.4588 66.793 21.1352 65.7652C20.4394 65.225 19.7115 64.5491 19.0177 63.7412C18.9625 65.3401 18.6779 67.5585 17.6343 68.9494C17.4563 69.1867 17.1819 69.3806 16.853 69.4622C16.4766 69.5554 16.1054 69.657 15.7373 69.764C16.9618 71.5071 18.3594 72.8924 19.6701 73.91C20.5252 74.5739 21.4773 75.09 22.4862 75.4482C24.456 72.849 25.2849 69.6223 25.6329 67.3839Z" fill="#FD995B"/>
<path d="M38.5139 78.6025C40.101 75.4282 42.634 74.0617 44.4207 73.4751C43.8819 73.3171 43.4238 73.0177 42.6583 72.5862C40.4826 71.3592 38.2296 70.3808 35.7749 69.6926C34.5758 71.416 33.2 72.7811 31.9117 73.7815C30.1924 75.1165 28.0707 75.8418 25.8856 75.8418C23.7004 75.8418 21.5788 75.1167 19.8594 73.7815C18.5708 72.7809 17.1946 71.4155 15.9956 69.6914C14.2492 70.1818 12.5939 70.827 10.999 71.6C17.4525 79.2896 26.543 84.6903 36.8786 86.411C37.2149 83.6314 37.7417 80.1467 38.5139 78.6025Z" fill="#3C58A0"/>
<path d="M18.5648 78.6853C20.2868 77.8689 21.6044 76.6569 22.6115 75.2807C21.6254 74.9332 20.6946 74.4299 19.8595 73.7815C18.5708 72.7809 17.1946 71.4155 15.9956 69.6914C14.2492 70.1818 12.5939 70.827 10.999 71.6C13.226 74.2535 15.7673 76.6341 18.5648 78.6853Z" fill="#1C2E7A"/>
<path d="M60.2206 9.95984C61.2966 9.95984 62.1688 9.08761 62.1688 8.01166C62.1688 6.93571 61.2966 6.06348 60.2206 6.06348C59.1447 6.06348 58.2725 6.93571 58.2725 8.01166C58.2725 9.08761 59.1447 9.95984 60.2206 9.95984Z" fill="#4FABF7"/>
<path d="M53.5761 9.95984C54.6521 9.95984 55.5243 9.08761 55.5243 8.01166C55.5243 6.93571 54.6521 6.06348 53.5761 6.06348C52.5002 6.06348 51.6279 6.93571 51.6279 8.01166C51.6279 9.08761 52.5002 9.95984 53.5761 9.95984Z" fill="#4FABF7"/>
<path d="M46.9296 9.95984C48.0056 9.95984 48.8778 9.08761 48.8778 8.01166C48.8778 6.93571 48.0056 6.06348 46.9296 6.06348C45.8537 6.06348 44.9814 6.93571 44.9814 8.01166C44.9814 9.08761 45.8537 9.95984 46.9296 9.95984Z" fill="#4FABF7"/>
<path d="M74.6491 50.3633C74.6746 51.7581 74.5368 53.1865 74.3877 54.1391C73.6839 57.2411 72.6677 59.942 71.368 62.1663C70.7786 63.1749 70.0435 64.0916 69.1825 64.8912L69.0723 64.9937V65.6884C69.0723 66.4086 69.3521 67.0745 69.8285 67.6878C72.4956 67.5266 74.763 66.9862 76.5504 66.3708C78.7017 65.6299 79.6434 63.0797 78.468 61.1313C75.7003 56.5438 76.1127 50.3633 76.1127 50.3633H74.6491Z" fill="#2A428C"/>
<path d="M78.4672 61.1315C78.2075 60.7012 77.9758 60.2567 77.7691 59.8048C74.5479 61.6733 73.2607 59.0257 73.2607 59.0257C73.2607 59.0257 73.1775 58.9037 73.025 58.6768C72.5382 59.9419 71.9852 61.1087 71.367 62.1664C70.7776 63.175 70.0423 64.0917 69.1815 64.8913L69.0713 64.9938V65.6885C69.0713 66.4087 69.3511 67.0747 69.8275 67.6878C72.4946 67.5266 74.762 66.9863 76.5494 66.3709C78.7009 65.6301 79.6426 63.0797 78.4672 61.1315Z" fill="#1C2E7A"/>
<path d="M51.3561 66.3714C53.1433 66.9868 55.4108 67.527 58.078 67.6884C58.5545 67.0751 58.8343 66.409 58.8343 65.689V64.8358L58.7289 64.734C57.941 63.9734 57.2622 63.1098 56.7113 62.1671C55.4108 59.9412 54.395 57.2415 53.6922 54.143C53.5382 53.2446 53.3992 51.7927 53.4301 50.3643H51.794C51.794 50.3643 52.2063 56.5445 49.4387 61.1323C48.263 63.0801 49.2049 65.6305 51.3561 66.3714Z" fill="#1C2E7A"/>
<path d="M70.2888 32.5528C68.6305 31.6973 66.5686 31.1035 64.0393 31.1035C61.51 31.1035 59.448 31.6971 57.7897 32.5528C54.1597 34.4256 51.9229 38.1443 51.9229 42.1568V47.1066L51.923 47.1082C52.4955 47.0949 53.1289 47.2824 53.5369 47.5544C53.6873 47.0623 53.893 46.6364 54.1713 46.323C54.4216 46.0409 54.5787 45.6918 54.5898 45.3184C54.6325 43.8895 55.0075 40.5126 57.5238 39.22C58.2248 38.8599 59.0814 39.1346 59.4751 39.8173C60.9909 42.4453 64.5265 45.9083 72.3892 44.4325C72.9468 44.3279 73.4708 44.7424 73.4882 45.3096C73.4884 45.3126 73.4884 45.3156 73.4884 45.3186C73.4995 45.692 73.6566 46.0411 73.9071 46.3232C74.1852 46.6366 74.391 47.0627 74.5413 47.5545C74.9493 47.2826 75.5827 47.095 76.1552 47.1084L76.1553 47.1068V42.157C76.1557 38.1443 73.9189 34.4256 70.2888 32.5528Z" fill="#2A428C"/>
<path d="M63.8871 43.5507C59.9901 36.1058 67.3119 31.4673 67.3119 31.4673C66.3199 31.2379 65.2319 31.1045 64.0383 31.1045C61.509 31.1045 59.4471 31.6981 57.7888 32.5538C54.1587 34.4266 51.9219 38.1452 51.9219 42.1578V47.1076L51.9221 47.1092C52.4946 47.0958 53.1279 47.2834 53.5359 47.5553C53.6864 47.0633 53.892 46.6374 54.1701 46.324C54.4204 46.0419 54.5776 45.6928 54.5888 45.3194C54.6315 43.8905 55.0065 40.5135 57.5228 39.221C58.2238 38.8608 59.0804 39.1356 59.4741 39.8183C60.2935 41.239 61.7053 42.9024 64.0699 43.8989C64.0089 43.7825 63.9479 43.6667 63.8871 43.5507Z" fill="#1C2E7A"/>
<path d="M53.4371 54.191C53.4371 54.191 52.7799 50.0318 53.5368 47.5549C52.85 47.0972 51.5231 46.8736 50.9263 47.457C49.7044 48.6514 50.5997 50.4553 51.0281 51.5947C51.1596 51.9445 51.2445 52.2984 51.2828 52.6529C51.3661 53.4232 51.7838 54.5506 53.5155 54.5241C53.4895 54.413 53.4628 54.3038 53.4371 54.191Z" fill="#FD995B"/>
<path d="M77.1515 47.4561C76.5548 46.8726 75.2278 47.0961 74.541 47.554C75.2979 50.0309 74.6407 54.1901 74.6407 54.1901C74.615 54.3029 74.5883 54.4121 74.5621 54.5232C76.2939 54.5497 76.7114 53.4222 76.7949 52.652C76.8332 52.2974 76.9181 51.9436 77.0496 51.5938C77.4782 50.4544 78.3734 48.6505 77.1515 47.4561Z" fill="#FCAD6D"/>
<path d="M23.5881 31.2467C16.6906 32.1865 16.0349 36.0972 16.032 37.532C16.0313 37.8329 15.8646 38.1117 15.5941 38.2434C12.0062 39.9887 13.9407 48.4007 13.9407 48.4007C14.301 48.4248 14.8414 48.734 15.1226 48.8702C15.1915 48.4415 15.304 48.0196 15.4628 47.6116C15.5837 47.3008 15.7351 46.9867 15.9242 46.6902C16.2524 46.1755 16.4018 45.5682 16.3571 44.961C16.2281 43.2062 16.1271 39.9113 18.4435 38.8691C20.4059 37.9862 22.8132 38.4974 24.3483 39.0078C25.3454 39.3393 26.4252 39.3393 27.4222 39.0078C28.9573 38.4974 31.3647 37.986 33.3271 38.8691C35.6368 39.9083 35.5421 43.1865 35.4145 44.9461C35.3702 45.5578 35.5156 46.1713 35.8462 46.69C36.0415 46.9962 36.1964 47.3209 36.3192 47.6415C36.472 48.0402 36.5806 48.4518 36.6478 48.8702C37.0023 48.6985 37.6724 48.3481 38.1059 48.4093C38.1589 46.5699 38.3288 44.5871 38.3288 44.5871C40.3726 34.5759 31.0148 30.2348 23.5881 31.2467Z" fill="#2A428C"/>
<path d="M23.5881 31.2472C16.6906 32.1869 16.0349 36.0977 16.032 37.5324C16.0313 37.8333 15.8646 38.1121 15.5941 38.2438C12.0062 39.9891 13.9407 48.4011 13.9407 48.4011C14.301 48.4252 14.8414 48.7344 15.1226 48.8706C15.1915 48.4419 15.304 48.02 15.4628 47.612C15.5837 47.3013 15.7351 46.9871 15.9242 46.6906C16.2524 46.1759 16.4018 45.5686 16.3571 44.9614C16.2281 43.2066 16.1271 39.9118 18.4435 38.8696C20.4059 37.9866 22.8132 38.4978 24.3483 39.0083C24.7683 39.1478 25.203 39.2252 25.64 39.2471C25.573 39.1324 25.5015 39.0183 25.4215 38.9058C22.4624 34.7468 26.5757 31.7162 27.3695 31.1865C26.0963 31.0598 24.8159 31.0798 23.5881 31.2472Z" fill="#1C2E7A"/>
<path d="M38.7169 48.6481C38.1797 48.1558 37.1096 48.4054 36.6469 48.7068C36.7483 49.3381 36.7541 49.9839 36.6664 50.6215L36.1204 54.5982C36.1204 54.9188 36.1104 55.2332 36.0918 55.5423C37.4232 55.9439 38.0845 54.7486 38.1959 53.9282C38.2439 53.5751 38.3223 53.2271 38.4311 52.8875C38.7853 51.7814 40.0629 49.8816 38.7169 48.6481Z" fill="#FCAD6D"/>
<path d="M13.0521 48.6481C13.5893 48.1558 14.6594 48.4054 15.1221 48.7068C15.0206 49.3381 15.0148 49.9839 15.1026 50.6215L15.6485 54.5982C15.6485 54.9188 15.6587 55.2332 15.6772 55.5423C14.3458 55.9439 13.6844 54.7486 13.5731 53.9282C13.5251 53.5751 13.4467 53.2271 13.3379 52.8875C12.9837 51.7814 11.7061 49.8816 13.0521 48.6481Z" fill="#FD995B"/>
<path d="M36.4822 47.4779C36.3593 47.1572 36.2044 46.8326 36.0091 46.5262C35.6785 46.0075 35.5331 45.394 35.5774 44.7823C35.7048 43.0227 35.6365 39.5814 33.3267 38.5422C31.3643 37.6593 28.9573 38.1704 27.4222 38.6809C26.4254 39.0124 25.3448 39.0124 24.3478 38.6809C22.8127 38.1704 20.4056 37.6593 18.4433 38.5422C16.1269 39.5844 16.0648 43.0426 16.1937 44.7974C16.2383 45.4045 16.0889 46.0117 15.7607 46.5265C15.5716 46.8233 15.4204 47.1372 15.2995 47.448C14.9069 48.4563 14.7925 49.5496 14.9396 50.6203L15.4858 54.5979C15.4858 60.3162 18.5384 64.2029 21.1349 66.2193C22.4901 67.2717 24.1627 67.8435 25.8852 67.8435C27.6077 67.8435 29.2802 67.2719 30.6355 66.2193C33.232 64.2031 36.2846 60.3162 36.2846 54.5979L36.8305 50.6212C36.9759 49.5611 36.8657 48.4782 36.4822 47.4779Z" fill="#F9BA8F"/>
<path d="M28.7171 66.2193C26.1206 64.2031 23.068 60.3162 23.068 54.5979L22.5219 50.6203C22.3749 49.5496 22.4893 48.4563 22.8817 47.448C23.0026 47.1372 23.154 46.8233 23.3429 46.5265C23.6711 46.0119 23.8205 45.4045 23.7759 44.7974C23.6593 43.2106 23.6994 40.2318 25.4203 38.905C25.0572 38.8704 24.6966 38.7973 24.3468 38.6809C22.8117 38.1704 20.4046 37.6593 18.4423 38.5422C16.1259 39.5844 16.0638 43.0426 16.1927 44.7974C16.2373 45.4045 16.0879 46.0117 15.7597 46.5265C15.5706 46.8233 15.4194 47.1372 15.2985 47.448C14.906 48.4563 14.7915 49.5496 14.9387 50.6203L15.4848 54.5979C15.4848 60.3162 18.5374 64.2029 21.1339 66.2193C22.4892 67.2717 24.1617 67.8435 25.8842 67.8435C27.22 67.8435 28.5248 67.4983 29.6758 66.8532C29.3425 66.6665 29.0216 66.4557 28.7171 66.2193Z" fill="#FCAD6D"/>
<path d="M46.8249 24.3445C47.237 23.3504 46.7651 22.2103 45.7709 21.7983C44.7768 21.3862 43.6368 21.858 43.2247 22.8522C42.8126 23.8464 43.2845 24.9864 44.2786 25.3985C45.2728 25.8106 46.4128 25.3387 46.8249 24.3445Z" fill="#E9EFFF"/>
<path d="M36.4131 23.5947C36.4131 24.6706 37.2853 25.5429 38.3613 25.5429C39.4372 25.5429 40.3095 24.6706 40.3095 23.5947C40.3095 22.5187 39.4372 21.6465 38.3613 21.6465C37.2851 21.6467 36.4131 22.5189 36.4131 23.5947Z" fill="#E9EFFF"/>
<path d="M33.529 24.3465C33.9411 23.3523 33.4692 22.2123 32.475 21.8002C31.4809 21.3881 30.3409 21.86 29.9288 22.8542C29.5167 23.8484 29.9886 24.9884 30.9827 25.4005C31.9769 25.8125 33.1169 25.3407 33.529 24.3465Z" fill="#E9EFFF"/>
<path d="M53.1095 71.0977C55.0315 74.3869 57.9421 76.945 61.5268 78.4959C63.1324 79.1903 64.9734 79.1905 66.5786 78.4959C70.1633 76.945 73.0739 74.3869 74.9959 71.0977C75.0725 70.9667 75.1474 70.8329 75.2225 70.6995C72.2115 69.5325 69.431 67.877 69.431 65.7167C69.431 64.9568 69.431 65.1844 69.431 64.6924C68.106 65.877 65.8338 67.3861 63.9624 67.4314C62.0911 67.3861 59.8189 65.877 58.4939 64.6924C58.4939 66.1051 58.8688 67.8055 54.4286 69.9612C53.9301 70.2033 53.3983 70.4315 52.8525 70.6459C52.9376 70.7973 53.0227 70.949 53.1095 71.0977Z" fill="#FCAD6D"/>
<path d="M58.4939 64.6924C58.4939 66.1051 58.8688 67.8055 54.4286 69.9612C53.9301 70.2033 53.3983 70.4315 52.8525 70.6459C52.9376 70.7974 53.0227 70.9491 53.1095 71.0979C54.4114 73.3259 56.1681 75.2169 58.2794 76.6882C61.842 74.071 63.2004 70.0664 63.7188 67.4142C61.8972 67.2539 59.7622 65.8262 58.4939 64.6924Z" fill="#FD995B"/>
<path d="M44 86.9992C57.3507 86.9992 69.2819 80.9237 77.1815 71.3872C76.3966 71.1364 75.59 70.8523 74.807 70.5344C74.7067 70.7147 74.6054 70.8936 74.5026 71.0698C72.6666 74.2119 69.8862 76.6556 66.4618 78.1372C64.9283 78.8006 63.1698 78.8006 61.6359 78.1372C58.2117 76.6558 55.4312 74.2119 53.5952 71.0698C53.4821 70.8762 53.3705 70.6801 53.2607 70.4814C49.7092 71.9453 45.3236 72.7961 45.3052 72.8007C43.6982 73.1092 40.1713 74.2316 38.1616 78.2506C37.3627 79.8485 36.8263 83.5237 36.4922 86.3457C38.9303 86.7744 41.4388 86.9992 44 86.9992Z" fill="#FC90CE"/>
<path d="M55.9093 78.0511C56.9248 77.6062 57.8134 77.0622 58.5911 76.4512C56.5483 75.04 54.8508 73.2185 53.5952 71.0698C53.4821 70.8762 53.3705 70.6801 53.2607 70.4814C49.7092 71.9454 45.3236 72.7961 45.3052 72.8007C43.6982 73.1092 40.1713 74.2316 38.1616 78.2506C37.3627 79.8485 36.8263 83.5237 36.4922 86.3457C38.9304 86.7746 41.439 86.9994 44.0002 86.9994C45.3197 86.9994 46.6249 86.9377 47.9143 86.8215C47.9533 81.3491 48.4958 81.2996 55.9093 78.0511Z" fill="#F964B2"/>
<path d="M73.5753 45.316C73.5698 45.1343 73.5584 44.9145 73.5371 44.669C73.4733 44.5769 73.397 44.4925 73.3077 44.4206C73.0365 44.2025 72.6835 44.1144 72.3418 44.1784C64.8444 45.5855 61.3293 42.5132 59.6996 39.6882C59.402 39.1721 58.8865 38.8613 58.34 38.8105C57.8773 38.9389 57.4523 39.131 57.0664 39.388C54.8695 40.8508 54.5426 44.0209 54.5039 45.316C54.4939 45.6563 54.3566 45.9849 54.1068 46.2661C52.7311 47.8163 53.0324 52.3452 53.3534 54.2099C54.0643 57.3472 55.0938 60.0827 56.4131 62.3408C57.7525 64.6332 59.781 66.4159 62.2791 67.4968C63.3981 67.9807 64.6809 67.9807 65.7998 67.4968C68.298 66.4159 70.3263 64.6332 71.6658 62.3408C72.985 60.0834 74.0146 57.3477 74.7268 54.2044C75.0351 52.2443 75.3635 47.8343 73.972 46.2663C73.7226 45.9847 73.5855 45.6562 73.5753 45.316Z" fill="#F9BA8F"/>
<path d="M65.6076 62.3405C64.2882 60.0824 63.2587 57.3469 62.548 54.2097C62.227 52.345 61.9257 47.8162 63.3014 46.266C63.551 45.9847 63.6883 45.6564 63.6985 45.316C63.7111 44.8887 63.756 44.257 63.8882 43.5501C61.8301 42.6064 60.5234 41.1161 59.6996 39.6882C59.402 39.1721 58.8865 38.8613 58.3402 38.8105C57.8775 38.9389 57.4525 39.131 57.0664 39.388C54.8695 40.8508 54.5426 44.0211 54.5039 45.316C54.4937 45.6564 54.3566 45.9849 54.1068 46.266C52.7311 47.8162 53.0324 52.345 53.3534 54.2097C54.0641 57.347 55.0938 60.0826 56.4131 62.3405C57.7525 64.6328 59.781 66.4156 62.2791 67.4965C63.3981 67.9804 64.6809 67.9804 65.7998 67.4965C66.8311 67.0502 67.781 66.4826 68.6367 65.8106C67.4198 64.855 66.3941 63.6864 65.6076 62.3405Z" fill="#FCAD6D"/>
</svg>
