<svg width="0" height="0" class="hidden">
  <symbol fill="none" xmlns="http://www.w3.org/2000/svg" viewBox="0 0 46 46" id="section21">
    <g filter="url(#filter0_d_1_58)">
      <circle cx="22" cy="19" r="19" fill="white"></circle>
    </g>
    <path d="M18 12L27.1445 17.2254C27.7778 17.5873 27.8231 18.4835 27.2296 18.9074L18 25.5" stroke="black" stroke-width="2"></path>
    <defs>
      <filter id="filter0_d_1_58" x="0" y="0" width="46" height="46" filterUnits="userSpaceOnUse" color-interpolation-filters="sRGB">
        <feFlood flood-opacity="0" result="BackgroundImageFix"></feFlood>
        <feColorMatrix in="SourceAlpha" type="matrix" values="0 0 0 0 0 0 0 0 0 0 0 0 0 0 0 0 0 0 127 0" result="hardAlpha"></feColorMatrix>
        <feOffset dx="1" dy="4"></feOffset>
        <feGaussianBlur stdDeviation="2"></feGaussianBlur>
        <feColorMatrix type="matrix" values="0 0 0 0 0.879167 0 0 0 0 0.654287 0 0 0 0 0.0696007 0 0 0 1 0"></feColorMatrix>
        <feBlend mode="normal" in2="BackgroundImageFix" result="effect1_dropShadow_1_58"></feBlend>
        <feBlend mode="normal" in="SourceGraphic" in2="effect1_dropShadow_1_58" result="shape"></feBlend>
      </filter>
    </defs>
  </symbol>
  <symbol fill="none" xmlns="http://www.w3.org/2000/svg" viewBox="0 0 46 46" id="section22">
    <g filter="url(#filter0_d_1_60)">
      <circle cx="22" cy="19" r="19" fill="#FFC839"></circle>
    </g>
    <path d="M18 12L27.1445 17.2254C27.7778 17.5873 27.8231 18.4835 27.2296 18.9074L18 25.5" stroke="black" stroke-width="2"></path>
    <defs>
      <filter id="filter0_d_1_60" x="0" y="0" width="46" height="46" filterUnits="userSpaceOnUse" color-interpolation-filters="sRGB">
        <feFlood flood-opacity="0" result="BackgroundImageFix"></feFlood>
        <feColorMatrix in="SourceAlpha" type="matrix" values="0 0 0 0 0 0 0 0 0 0 0 0 0 0 0 0 0 0 127 0" result="hardAlpha"></feColorMatrix>
        <feOffset dx="1" dy="4"></feOffset>
        <feGaussianBlur stdDeviation="2"></feGaussianBlur>
        <feColorMatrix type="matrix" values="0 0 0 0 0.883333 0 0 0 0 0.874132 0 0 0 0 0.850208 0 0 0 1 0"></feColorMatrix>
        <feBlend mode="normal" in2="BackgroundImageFix" result="effect1_dropShadow_1_60"></feBlend>
        <feBlend mode="normal" in="SourceGraphic" in2="effect1_dropShadow_1_60" result="shape"></feBlend>
      </filter>
    </defs>
  </symbol>
  <symbol fill="none" xmlns="http://www.w3.org/2000/svg" viewBox="0 0 88 92" id="section31">
    <path d="M44.0004 3.95215C20.2152 3.95215 0.933594 23.6622 0.933594 47.9759C0.933594 59.0387 4.92629 69.1474 11.5179 76.8812L25.4155 87.6998C31.0421 90.4555 37.3447 91.9997 44.0004 91.9997C67.7855 91.9997 87.0671 72.2896 87.0671 47.9759C87.0671 23.6622 67.7855 3.95215 44.0004 3.95215Z" fill="#FFC839"></path>
    <path d="M46.7893 75.6926L46.681 75.4903C46.0544 74.3198 46.4784 72.8379 47.6234 72.1973L47.7552 72.1237C46.5557 72.7948 45.0371 72.3407 44.3806 71.1147C43.724 69.8887 44.1682 68.3364 45.3676 67.6653C44.1681 68.3364 42.6497 67.8823 41.993 66.6561C41.3364 65.43 41.7806 63.8778 42.98 63.2065C41.7804 63.8776 40.2619 63.4236 39.6053 62.1974C38.9488 60.9714 39.393 59.4191 40.5925 58.7477L43.8316 56.9352L43.3379 56.0133C42.9752 55.336 42.3459 54.85 41.6096 54.6782C38.9175 54.0505 36.1227 55.1603 34.5511 57.4809C33.1353 59.63 34.5595 57.0093 30.9708 65.4228C30.7393 65.9841 30.3288 66.4488 29.806 66.7415L11.5176 76.8814C15.3591 81.3887 20.0832 85.0887 25.4152 87.7001L38.3344 80.5368C38.6886 80.3386 39.0825 80.2261 39.486 80.208L43.4134 80.0317C43.8169 80.0136 44.2108 79.9011 44.565 79.7029L49.7572 76.7973L49.5902 76.8392C48.5318 77.1822 47.3414 76.7235 46.7893 75.6926Z" fill="#FCAD6D"></path>
    <path d="M54.3955 74.2564L41.4991 50.1016L32.4365 52.2355L46.5451 78.6604C47.7348 80.8765 50.4566 81.687 52.6245 80.4709C54.7922 79.2548 55.5852 76.4725 54.3955 74.2564Z" fill="#3C58A0"></path>
    <path d="M40.5726 58.2013C39.5736 56.3303 40.5977 54.0013 42.6296 53.5228L43.2478 53.3773L41.4989 50.1016L32.4365 52.2357L46.5451 78.6606C47.7118 80.8339 50.352 81.6542 52.4983 80.5378L40.5726 58.2013Z" fill="#2A428C"></path>
    <path d="M46.5182 75.8438L46.4099 75.6415C45.7831 74.471 46.2073 72.9891 47.3523 72.3483L54.0214 68.6166C55.1665 67.9758 56.6162 68.4094 57.243 69.5799L57.3513 69.7822C57.9781 70.9527 57.5539 72.4346 56.4089 73.0753L49.7398 76.8071C48.5947 77.4479 47.1451 77.0143 46.5182 75.8438Z" fill="#F9BA8F"></path>
    <path d="M44.1102 71.2662C43.4537 70.04 43.8979 68.4877 45.0974 67.8166L53.0931 63.3425C54.2927 62.6714 55.8112 63.1255 56.4678 64.3515C57.1243 65.5775 56.6801 67.1298 55.4808 67.8011L47.485 72.2752C46.2853 72.9465 44.7668 72.4922 44.1102 71.2662Z" fill="#F9BA8F"></path>
    <path d="M41.7225 66.8082C41.066 65.582 41.5102 64.0297 42.7095 63.3586L51.2028 58.6062C52.4023 57.9351 53.9209 58.3892 54.5774 59.6152C55.2339 60.8413 54.7897 62.3937 53.5904 63.0648L45.0972 67.8172C43.8976 68.4883 42.3791 68.0342 41.7225 66.8082Z" fill="#F9BA8F"></path>
    <path d="M51.146 55.7403C50.4895 54.5142 48.9709 54.0601 47.7714 54.7312L40.322 58.8994C39.1224 59.5705 38.6782 61.1229 39.3349 62.349C39.9915 63.5752 41.5101 64.0293 42.7096 63.358L50.1589 59.1898C51.3584 58.5187 51.8026 56.9665 51.146 55.7403Z" fill="#F9BA8F"></path>
    <path d="M30.0879 66.5568C30.1993 68.1479 30.864 70.6095 33.8324 71.1828C35.8064 71.5641 37.8042 69 37.8042 69C40.3027 65.4318 40.315 62.7979 40.1456 61.6508C40.1308 61.5514 40.2619 61.5065 40.3092 61.5945L40.9464 62.7844C41.1695 63.2009 41.4613 63.554 41.799 63.8388C42.5993 64.4347 43.6948 64.545 44.6208 64.027C45.4774 63.5476 45.9701 62.6534 45.9919 61.7223C46.017 60.6514 45.5464 60.1829 43.3385 56.0133C43.1713 55.7013 42.9254 55.3969 42.6174 55.1585C42.6164 55.1578 42.6155 55.1569 42.6146 55.1561C42.3261 54.9333 41.9837 54.7653 41.6104 54.6782C38.9183 54.0505 36.1235 55.1603 34.5519 57.4809C33.1361 59.63 34.5603 57.0093 30.9715 65.4228C30.7833 65.8788 30.4758 66.2689 30.0879 66.5568Z" fill="#FCAD6D"></path>
    <path d="M42.8841 60.4705L44.02 62.5917C44.3192 63.1503 44.9787 63.3848 45.5454 63.162C45.8246 62.7351 45.9798 62.2345 45.9917 61.7223C46.0141 60.7711 45.6256 60.3292 44.4775 58.1406L43.3742 58.758C42.7786 59.0912 42.5582 59.8619 42.8841 60.4705Z" fill="#F9DFCD"></path>
    <path d="M34.8056 70.2534C34.6388 69.9388 34.6988 69.5372 34.9716 69.289C39.5037 65.167 38.8326 60.5855 38.8254 60.5397C38.7567 60.1099 39.0421 59.7047 39.4626 59.6344C39.8833 59.5643 40.2798 59.856 40.348 60.2858C40.3833 60.5077 41.1561 65.7751 35.9973 70.4672C35.6789 70.7567 35.1913 70.7276 34.9081 70.4024C34.8675 70.3558 34.8334 70.3059 34.8056 70.2534Z" fill="#FD995B"></path>
    <path d="M28.1612 51.5142L23.087 28.9958C23.0532 28.8456 23.0379 28.6957 23.037 28.5479C17.0475 30.282 13.381 36.5355 14.7938 42.8052C16.2065 49.0748 22.1801 53.0587 28.308 51.9394C28.2456 51.8061 28.1952 51.6645 28.1612 51.5142Z" fill="#E9EFFF"></path>
    <path d="M16.0293 46.0504C18.4366 50.3809 23.3212 52.8502 28.3083 51.9395C28.2457 51.8062 28.1953 51.6646 28.1614 51.5144L26.6194 44.6717C26.4846 44.6001 26.3454 44.5168 26.2019 44.4199C26.2023 44.4199 21.7849 49.1881 16.0293 46.0504Z" fill="#D3DCFB"></path>
    <path d="M56.4884 13.4443C51.8715 18.974 45.8148 23.0215 39.0488 25.1379C39.0573 25.1689 39.0675 25.1991 39.0747 25.2309L44.1489 47.7494C44.1562 47.7812 44.1598 47.8128 44.1656 47.8446C51.1556 46.7219 58.334 47.6529 64.8523 50.5608L75.7683 55.4303C75.1265 52.5819 64.8623 7.032 64.2203 4.18359L56.4884 13.4443Z" fill="#E9EFFF"></path>
    <path d="M59.7794 9.50252L65.2607 32.1507C66.1544 35.8433 63.2654 39.372 59.5545 39.0877C55.1693 38.7517 49.2821 38.8733 42.8977 40.596C42.8977 40.596 42.8198 40.7951 42.6377 41.0434L44.1489 47.7494C44.1561 47.7812 44.16 47.8128 44.1656 47.8446C51.1555 46.7219 58.3339 47.6529 64.8522 50.5608L75.7682 55.4303C75.1265 52.5819 64.8622 7.032 64.2203 4.18359L59.7794 9.50252Z" fill="#D3DCFB"></path>
    <path d="M81.2591 23.4013C76.0182 23.698 72.5732 21.2402 72.5732 21.2402C72.9854 23.0698 75.5647 34.5157 75.9797 36.3573C75.9797 36.3573 78.0256 32.6067 82.8654 30.5297C83.6429 30.196 84.0809 29.3477 83.8916 28.5077L83.0473 24.7608C82.858 23.9208 82.1011 23.3537 81.2591 23.4013Z" fill="#E9EFFF"></path>
    <path d="M83.395 26.3044C82.4845 26.6806 81.6784 27.0781 80.9796 27.4691C79.1125 28.5136 76.7872 27.4466 76.3095 25.3263C76.0992 24.3936 75.8915 23.4714 75.7174 22.6993C73.729 22.0632 72.5732 21.2402 72.5732 21.2402C72.9854 23.0698 75.5647 34.5157 75.9797 36.3573C75.9797 36.3573 78.0256 32.6067 82.8654 30.5297C83.6431 30.196 84.0809 29.3477 83.8916 28.5077L83.395 26.3044Z" fill="#D3DCFB"></path>
    <path d="M78.7245 58.5452C77.4472 58.846 76.1735 58.0314 75.8793 56.7258L63.7662 2.97089C63.4719 1.66528 64.2687 0.363264 65.546 0.0624672C66.8232 -0.23833 68.0969 0.576194 68.3912 1.8818L80.5042 55.6368C80.7985 56.9424 80.0017 58.2444 78.7245 58.5452Z" fill="#FF4155"></path>
    <path d="M80.5046 55.6374L75.7209 34.4082C75.5344 35.4021 74.795 36.2398 73.7683 36.4816C72.7152 36.7296 71.6653 36.2786 71.0801 35.427L75.8796 56.7263C76.1739 58.0319 77.4476 58.8464 78.7248 58.5456C80.002 58.245 80.7988 56.9428 80.5046 55.6374Z" fill="#E80054"></path>
    <path d="M37.0223 23.619L24.2433 26.628C23.1681 26.8812 22.4971 27.9775 22.7448 29.0766L27.8191 51.595C28.0667 52.6942 29.1392 53.3799 30.2144 53.1267L42.9934 50.1177C44.0686 49.8645 44.7396 48.7682 44.4917 47.6691L39.4175 25.1506C39.17 24.0517 38.0975 23.3658 37.0223 23.619Z" fill="#FF4155"></path>
    <path d="M39.6617 41.8135L29.6561 44.1696C29.6561 44.1696 28.4627 45.9465 26.2021 44.4203L27.819 51.5954C28.0667 52.6945 29.1391 53.3802 30.2144 53.127L42.9933 50.118C44.0685 49.8648 44.7393 48.7685 44.4917 47.6694L42.8978 40.5967C42.8978 40.5967 42.1081 42.6203 39.6617 41.8135Z" fill="#E80054"></path>
    <path d="M30.6896 26.7283C30.0893 26.7283 29.5467 26.3063 29.4061 25.6829L28.533 21.808C28.3695 21.0827 28.8123 20.3591 29.5217 20.1922C30.231 20.0242 30.9391 20.4777 31.1024 21.2029L31.9755 25.0779C32.1389 25.8031 31.6962 26.5267 30.9867 26.6937C30.8872 26.717 30.7875 26.7283 30.6896 26.7283Z" fill="#BEC8F7"></path>
    <path d="M27.8976 23.0256C27.2973 23.0256 26.7546 22.6035 26.614 21.9802C26.4505 21.2549 26.8933 20.5313 27.6028 20.3644L31.3209 19.489C32.0306 19.3213 32.7381 19.7743 32.9015 20.4997C33.065 21.2249 32.6222 21.9485 31.9128 22.1155L28.1946 22.9909C28.0952 23.0144 27.9957 23.0256 27.8976 23.0256Z" fill="#E9EFFF"></path>
    <path d="M26.5339 30.3146C26.3705 29.5894 26.8133 28.8658 27.5227 28.6989L34.959 26.948C35.6684 26.7802 36.3761 27.2335 36.5396 27.9588C36.7031 28.684 36.2603 29.4076 35.5508 29.5745L28.1146 31.3254C27.4067 31.4925 26.6976 31.0411 26.5339 30.3146Z" fill="#CC0053"></path>
    <path d="M27.574 34.9326C27.4105 34.2074 27.8533 33.4838 28.5628 33.3168L35.999 31.5659C36.7085 31.3988 37.4162 31.8515 37.5796 32.5767C37.7431 33.3019 37.3003 34.0255 36.5909 34.1925L29.1546 35.9433C28.4469 36.1104 27.7376 35.6591 27.574 34.9326Z" fill="#CC0053"></path>
    <path d="M28.615 39.5509C28.4515 38.8257 28.8941 38.1021 29.6038 37.9352L37.04 36.1841C37.7497 36.017 38.4572 36.4696 38.6207 37.1949C38.7841 37.9201 38.3415 38.6437 37.6319 38.8106L30.1956 40.5617C29.4879 40.7288 28.7788 40.2774 28.615 39.5509Z" fill="#CC0053"></path>
    <path d="M29.656 44.1692C29.4925 43.444 29.9352 42.7204 30.6448 42.5534L38.081 40.8024C38.7907 40.6349 39.4984 41.0879 39.6617 41.8131C39.8251 42.5383 39.3825 43.2619 38.6729 43.4289L31.2366 45.1799C30.529 45.347 29.8197 44.8958 29.656 44.1692Z" fill="#CC0053"></path>
    <path d="M30.697 48.7883C30.5336 48.0631 30.9763 47.3395 31.6858 47.1725L39.1221 45.4216C39.8312 45.2538 40.5394 45.707 40.7027 46.4324C40.8662 47.1576 40.4234 47.8812 39.7139 48.0481L32.2777 49.799C31.57 49.9661 30.8607 49.5149 30.697 48.7883Z" fill="#CC0053"></path>
    <path d="M38.3344 80.537C26.3607 79.1576 30.0876 66.5572 30.0876 66.5566C29.9976 66.6235 29.9045 66.6866 29.806 66.7417L11.5176 76.8817C15.3591 81.3889 20.0832 85.0889 25.4154 87.7003L38.3344 80.537Z" fill="#FD995B"></path>
  </symbol>
  <symbol fill="none" xmlns="http://www.w3.org/2000/svg" viewBox="0 0 90 92" id="section32">
    <path d="M3.99082 64.0145L7.04515 70.2881C10.3616 75.9175 14.893 80.7452 20.2811 84.4083H69.7196C75.2711 80.6343 79.9145 75.6248 83.2553 69.7749L86.1614 63.6165C88.0095 58.7559 89.0242 53.4848 89.0242 47.9759C89.0242 23.6622 69.3141 3.95215 45.0004 3.95215C20.6867 3.95215 0.976562 23.6622 0.976562 47.9759C0.976562 53.6352 2.04552 59.0445 3.99082 64.0145Z" fill="#FFC839"></path>
    <path d="M66.4323 62.4845C67.562 63.3619 68.9562 63.8382 70.3923 63.8382C71.8282 63.8382 73.2224 63.3617 74.3521 62.4845C75.1855 61.8372 76.074 60.9568 76.8531 59.8492C76.6287 59.7838 76.4021 59.7216 76.1721 59.6641C75.9322 59.6039 75.7213 59.4596 75.5853 59.2677C74.9578 58.3824 74.7839 57.0139 74.7499 56.0215C74.3097 56.5341 73.8477 56.963 73.4064 57.3057C71.6361 58.6805 69.1462 58.6787 67.3782 57.3057C66.9369 56.963 66.4749 56.5341 66.0347 56.0215C65.9997 57.036 65.8191 58.4437 65.1569 59.3261C65.0439 59.4767 64.8698 59.5998 64.6612 59.6515C64.415 59.7124 64.1724 59.7795 63.9316 59.8497C64.7106 60.957 65.599 61.8374 66.4323 62.4845Z" fill="#FCAD6D"></path>
    <path d="M67.3782 57.3057C66.9369 56.963 66.4749 56.5341 66.0347 56.0215C65.9997 57.036 65.8191 58.4437 65.1569 59.3261C65.0439 59.4767 64.8698 59.5998 64.6612 59.6515C64.415 59.7124 64.1724 59.7795 63.9316 59.8497C64.7108 60.9571 65.5991 61.8376 66.4324 62.4847C66.9304 62.8715 67.4801 63.1801 68.0619 63.4047C69.622 62.0974 70.2504 60.1173 70.469 58.3332C69.3785 58.3499 68.2837 58.009 67.3782 57.3057Z" fill="#FCAD6D"></path>
    <path d="M86.1621 63.6165C85.2551 62.8961 84.081 62.3957 82.5599 62.2714C81.9977 62.2254 81.6985 62.0072 81.0358 61.6336C79.6553 60.8551 78.2259 60.2342 76.6682 59.7976C75.9074 60.8912 75.0344 61.7573 74.217 62.3919C73.1262 63.239 71.7799 63.6991 70.3935 63.6991C69.007 63.6991 67.6608 63.239 66.5699 62.3919C65.7523 61.7569 64.879 60.8906 64.1182 59.7969C62.5672 60.2324 61.1277 60.8572 59.7511 61.6336C59.0884 62.0074 58.7893 62.2255 58.2268 62.2714C53.4457 62.6622 52.0799 66.7598 51.7275 69.7751H83.2562C84.3769 67.8122 85.3494 65.7539 86.1621 63.6165Z" fill="#FF4155"></path>
    <path d="M66.5082 64.3309C67.1662 64.0655 67.7205 63.7121 68.1874 63.2966C67.609 63.0785 67.0625 62.7754 66.5689 62.3919C65.7513 61.7569 64.8781 60.8906 64.1173 59.7969C62.5662 60.2324 61.1267 60.8572 59.7501 61.6336C59.0875 62.0074 58.7883 62.2255 58.2259 62.2714C53.4447 62.6622 52.0789 66.7598 51.7266 69.7751H58.4891C58.6413 64.2853 61.3323 66.4182 66.5082 64.3309Z" fill="#E80054"></path>
    <path d="M15.7213 62.9487C16.8303 63.8098 18.1986 64.2777 19.6083 64.2777C21.0178 64.2777 22.3863 63.81 23.4951 62.9487C24.3201 62.3082 25.2004 61.4351 25.9698 60.3348C25.7777 60.28 25.5843 60.227 25.3881 60.1778C25.1482 60.1178 24.9373 59.9733 24.8013 59.7814C24.1738 58.8961 24 57.5276 23.9659 56.5352C23.5257 57.0478 23.0637 57.4767 22.6224 57.8194C20.8521 59.1942 18.3622 59.1924 16.5942 57.8194C16.1527 57.4767 15.6909 57.0478 15.2507 56.5352C15.2156 57.5497 15.0351 58.9573 14.3729 59.8398C14.2599 59.9904 14.0858 60.1135 13.8772 60.165C13.6646 60.2177 13.4545 60.2743 13.2461 60.3338C14.0155 61.4345 14.8962 62.308 15.7213 62.9487Z" fill="#FCAD6D"></path>
    <path d="M19.5077 58.8448C18.4763 58.8238 17.4506 58.4834 16.5942 57.8184C16.1527 57.4757 15.6909 57.0468 15.2507 56.5342C15.2156 57.5487 15.0351 58.9564 14.3729 59.8388C14.2599 59.9894 14.0858 60.1125 13.8772 60.1642C13.6646 60.2169 13.4545 60.2735 13.2461 60.333C14.0157 61.4335 14.8963 62.307 15.7215 62.9478C15.9773 63.1465 16.2474 63.3231 16.5283 63.4791C18.4987 61.9728 19.2611 60.26 19.5077 58.8448Z" fill="#FD995B"></path>
    <path d="M31.7744 62.785C31.2122 62.739 30.913 62.5209 30.2501 62.1473C28.8696 61.3689 27.4402 60.7479 25.8825 60.3113C25.1217 61.4047 24.2487 62.2709 23.4313 62.9056C22.3405 63.7526 20.9942 64.2128 19.6078 64.2128C18.2213 64.2128 16.8751 63.7526 15.7842 62.9056C14.9666 62.2708 14.0933 61.4043 13.3325 60.3105C11.7815 60.7461 10.3422 61.3709 8.96542 62.1473C8.30273 62.5211 8.00355 62.7392 7.44113 62.785C6.00291 62.9025 4.87573 63.3571 3.99023 64.0152C4.84411 66.1969 5.86869 68.2928 7.04456 70.2888H38.2735C37.9213 67.2734 36.5555 63.176 31.7744 62.785Z" fill="#73C3F9"></path>
    <path d="M8.65959 70.2888C8.76777 65.6313 9.75964 67.4555 15.2371 64.3316C15.742 64.0436 16.1892 63.7428 16.5874 63.4337C16.3078 63.2792 16.0388 63.1034 15.7842 62.9058C14.9666 62.2709 14.0933 61.4045 13.3325 60.3105C11.7815 60.7463 10.3422 61.3711 8.96542 62.1473C8.30273 62.5211 8.00355 62.7392 7.44113 62.785C6.00291 62.9025 4.87573 63.3571 3.99023 64.015C4.84411 66.1968 5.86869 68.2926 7.04456 70.2888H8.65959Z" fill="#4FABF7"></path>
    <path d="M38.5164 83.2396C40.3663 84.6762 42.6492 85.4564 45.0005 85.4564C47.3515 85.4564 49.6344 84.6762 51.4843 83.2396C52.8438 82.1838 54.293 80.7483 55.5654 78.944C55.1794 78.8305 54.7895 78.7223 54.3933 78.6229C54.0034 78.5252 53.6607 78.2907 53.4395 77.9787C52.4198 76.54 52.1373 74.316 52.0818 72.7031C51.3664 73.5363 50.6157 74.2332 49.8984 74.7902C47.0216 77.0242 42.9748 77.0214 40.1018 74.7902C39.3845 74.2332 38.6338 73.5363 37.9184 72.7031C37.8617 74.3518 37.5682 76.6394 36.4921 78.0736C36.3084 78.3184 36.0256 78.5183 35.6864 78.6024C35.2637 78.707 34.8479 78.8229 34.4355 78.9446C35.7081 80.7484 37.1571 82.184 38.5164 83.2396Z" fill="#FCAD6D"></path>
    <path d="M44.6542 76.4568C43.0399 76.3873 41.443 75.8317 40.1018 74.7902C39.3845 74.2332 38.6338 73.5363 37.9184 72.7031C37.8617 74.3518 37.5682 76.6394 36.4921 78.0736C36.3084 78.3184 36.0256 78.5184 35.6864 78.6024C35.2637 78.707 34.8479 78.8229 34.4355 78.9446C35.7079 80.7484 37.1569 82.184 38.5163 83.2396C39.1948 83.7665 39.9318 84.2042 40.7088 84.5483C43.0368 82.2312 44.1437 79.1579 44.6542 76.4568Z" fill="#FD995B"></path>
    <path d="M62.2954 81.8237C60.052 80.5585 57.7288 79.5495 55.1976 78.8399C53.9613 80.6171 52.5425 82.0245 51.2143 83.0561C49.4415 84.4329 47.2536 85.1806 45.0005 85.1806C42.7472 85.1806 40.5595 84.4329 38.7867 83.0561C37.4581 82.0244 36.0389 80.6163 34.8025 78.8389C32.2819 79.5468 29.9427 80.5621 27.7054 81.8237C26.6284 82.431 26.1421 82.7855 25.2284 82.8601C23.2355 83.0231 21.6099 83.5842 20.2812 84.4085C27.3281 89.1991 35.8368 91.9999 45.0003 91.9999C54.1638 91.9999 62.6726 89.1991 69.7196 84.4085C68.3911 83.5842 66.7655 83.0231 64.7724 82.8601C63.8585 82.7855 63.3725 82.431 62.2954 81.8237Z" fill="#3C58A0"></path>
    <path d="M38.7867 83.0561C37.4581 82.0244 36.0389 80.6163 34.8025 78.8389C32.2819 79.5468 29.9427 80.5621 27.7054 81.8237C26.6283 82.431 26.1421 82.7855 25.2284 82.8601C23.2355 83.0231 21.6099 83.5842 20.2812 84.4085C23.6509 86.6991 27.3555 88.5335 31.3054 89.8257C32.3969 89.2458 34.4426 88.5632 38.2743 86.3963C39.3051 85.8134 40.1804 85.1098 40.9254 84.3278C40.1669 83.9954 39.448 83.5695 38.7867 83.0561Z" fill="#2A428C"></path>
    <path d="M43.8785 9.99979C43.8785 7.6847 45.7726 5.79061 48.0876 5.79061H68.1284V4.20918C68.1284 1.89409 66.2341 0 63.919 0H42.1574C39.8423 0 37.9482 1.89409 37.9482 4.20918V21.4881C37.9482 23.8032 39.8423 25.6973 42.1574 25.6973H43.8783V9.99979H43.8785Z" fill="#4FABF7"></path>
    <path d="M54.1679 0H42.1574C39.8423 0 37.9482 1.89409 37.9482 4.20918V21.4881C37.9482 23.8032 39.8423 25.6973 42.1574 25.6973H43.8783V9.99979C43.8783 7.6847 45.7724 5.79061 48.0875 5.79061H54.0786C54.1318 5.61721 54.1679 5.52198 54.1679 5.52198C51.1817 2.53575 54.1679 0 54.1679 0V0Z" fill="#1886EA"></path>
    <path d="M69.5803 5.52148H47.8186C45.5035 5.52148 43.6094 7.41557 43.6094 9.73066V27.0096C43.6094 29.3247 45.5035 31.2188 47.8186 31.2188C48.4103 31.2188 48.7382 31.8983 48.3763 32.3664C47.9907 32.8652 47.5585 33.3303 47.0788 33.7529C46.1836 34.5414 46.6872 36.158 47.8223 36.1544C50.7074 36.1454 53.4113 34.681 55.2515 32.2956C55.7687 31.6252 56.5559 31.2186 57.4025 31.2186H69.58C71.8951 31.2186 73.7891 29.3245 73.7891 27.0094V9.73066C73.7895 7.41557 71.8954 5.52148 69.5803 5.52148Z" fill="#E9EFFF"></path>
    <path d="M47.8186 5.52166C45.5035 5.52166 43.6094 7.41575 43.6094 9.73084V27.0098C43.6094 29.3249 45.5035 31.219 47.8186 31.219C48.4103 31.219 48.7382 31.8985 48.3763 32.3666C47.9907 32.8654 47.5585 33.3305 47.0788 33.7531C46.1836 34.5416 46.6872 36.1582 47.8223 36.1546C50.7074 36.1456 53.4113 34.6812 55.2515 32.2958C55.7687 31.6254 56.5559 31.2188 57.4025 31.2188H62.8397C56.2991 27.3974 59.1732 20.6638 59.1732 20.6638L58.3184 16.8078C51.4181 12.7624 54.1673 5.52148 54.1673 5.52148H47.8186V5.52166Z" fill="#BEC8F7"></path>
    <path d="M51.8751 20.7816C52.9621 20.5246 53.635 19.4352 53.378 18.3482C53.1211 17.2612 52.0317 16.5884 50.9447 16.8453C49.8577 17.1023 49.1849 18.1917 49.4418 19.2787C49.6987 20.3656 50.7882 21.0385 51.8751 20.7816Z" fill="#1886EA"></path>
    <path d="M58.7736 20.7796C59.8606 20.5227 60.5334 19.4332 60.2765 18.3463C60.0195 17.2593 58.9301 16.5864 57.8431 16.8434C56.7562 17.1003 56.0833 18.1898 56.3402 19.2767C56.5972 20.3637 57.6866 21.0366 58.7736 20.7796Z" fill="#1886EA"></path>
    <path d="M66.6408 20.267C67.4306 19.4772 67.4306 18.1966 66.6408 17.4068C65.851 16.617 64.5705 16.617 63.7807 17.4068C62.9909 18.1966 62.9909 19.4772 63.7807 20.267C64.5705 21.0568 65.851 21.0568 66.6408 20.267Z" fill="#4FABF7"></path>
    <path d="M42.632 39.1975C35.52 40.1665 34.844 44.1989 34.8408 45.6783C34.8401 45.9886 34.6683 46.2761 34.3892 46.4117C30.6898 48.2115 32.6844 56.885 32.6844 56.885C33.056 56.9098 33.6132 57.2286 33.9032 57.3691C33.9742 56.9271 34.0901 56.492 34.2539 56.0714C34.3786 55.7508 34.5346 55.427 34.7296 55.1212C35.0679 54.5904 35.2219 53.9644 35.1759 53.3383C35.0429 51.5289 34.9387 48.1317 37.3271 47.057C39.3506 46.1465 41.8328 46.6737 43.4157 47.2C44.4437 47.5418 45.5572 47.5418 46.5852 47.2C48.168 46.6737 50.6501 46.1465 52.6737 47.057C55.0555 48.1287 54.9575 51.5086 54.8262 53.3229C54.7805 53.9536 54.9304 54.5863 55.2713 55.1212C55.4725 55.4369 55.6323 55.7719 55.7589 56.1023C55.9165 56.5132 56.0285 56.9378 56.0978 57.3691C56.4635 57.1919 57.1542 56.8307 57.6013 56.8938C57.6561 54.9972 57.8311 52.9527 57.8311 52.9527C59.9386 42.6302 50.2898 38.154 42.632 39.1975Z" fill="#2A428C"></path>
    <path d="M42.632 39.1979C35.52 40.1669 34.844 44.1993 34.8408 45.6787C34.8401 45.989 34.6683 46.2765 34.3892 46.4121C30.6898 48.2119 32.6844 56.8854 32.6844 56.8854C33.056 56.9102 33.6132 57.229 33.9032 57.3695C33.9742 56.9275 34.0901 56.4924 34.2539 56.0718C34.3786 55.7512 34.5346 55.4274 34.7296 55.1216C35.0679 54.5908 35.2219 53.9648 35.1759 53.3387C35.0429 51.5293 34.9387 48.1321 37.3271 47.0574C39.3506 46.1469 41.8328 46.6741 43.4157 47.2004C43.8487 47.3444 44.297 47.424 44.7475 47.4468C44.6785 47.3284 44.6048 47.2107 44.5224 47.0948C41.4713 42.8063 45.7124 39.6814 46.5309 39.1353C45.2183 39.0047 43.8979 39.0254 42.632 39.1979Z" fill="#1C2E7A"></path>
    <path d="M58.2322 57.1402C57.6782 56.6326 56.5749 56.8899 56.0977 57.2007C56.2023 57.8516 56.2082 58.5175 56.1178 59.175L55.5549 63.2753C55.5549 63.6057 55.5444 63.93 55.5254 64.2488C56.8982 64.6628 57.5801 63.4305 57.6949 62.5847C57.7443 62.2207 57.8252 61.8618 57.9373 61.5116C58.3026 60.371 59.6201 58.412 58.2322 57.1402Z" fill="#FCAD6D"></path>
    <path d="M31.7691 57.1402C32.3231 56.6326 33.4263 56.8899 33.9034 57.2007C33.7988 57.8516 33.7929 58.5175 33.8833 59.175L34.4463 63.2753C34.4463 63.6057 34.4567 63.93 34.4759 64.2488C33.1031 64.6628 32.4212 63.4305 32.3062 62.5847C32.2568 62.2207 32.1759 61.8618 32.0638 61.5116C31.6987 60.371 30.3812 58.412 31.7691 57.1402Z" fill="#FD995B"></path>
    <path d="M55.9274 55.9339C55.8007 55.6032 55.641 55.2685 55.4397 54.9528C55.0989 54.4178 54.9488 53.7853 54.9946 53.1545C55.126 51.3402 55.0555 47.7919 52.674 46.7202C50.6505 45.8097 48.1687 46.3369 46.5858 46.8633C45.5578 47.205 44.4437 47.205 43.4157 46.8633C41.8329 46.3369 39.3509 45.8097 37.3276 46.7202C34.9392 47.7949 34.875 51.3605 35.008 53.1699C35.054 53.796 34.9 54.422 34.5616 54.9528C34.3667 55.2586 34.2107 55.5824 34.086 55.903C33.6814 56.9426 33.5633 58.07 33.715 59.174L34.2781 63.2754C34.2781 69.1716 37.4255 73.1792 40.1028 75.2582C41.5003 76.3433 43.2249 76.9329 45.001 76.9329C46.7772 76.9329 48.5016 76.3435 49.8991 75.2582C52.5764 73.1792 55.7238 69.1714 55.7238 63.2754L56.2868 59.1751C56.4364 58.0819 56.3227 56.9653 55.9274 55.9339Z" fill="#F9BA8F"></path>
    <path d="M47.922 75.2582C45.2446 73.1792 42.0972 69.1714 42.0972 63.2754L41.5341 59.174C41.3824 58.07 41.5005 56.9426 41.9051 55.903C42.0298 55.5824 42.1858 55.2588 42.3807 54.9528C42.7191 54.422 42.8731 53.7958 42.8271 53.1699C42.7069 51.5339 42.7482 48.4625 44.5226 47.0943C44.1482 47.0586 43.7766 46.9833 43.4157 46.8633C41.8329 46.3369 39.3509 45.8097 37.3276 46.7202C34.9392 47.7949 34.875 51.3605 35.008 53.1699C35.054 53.796 34.9 54.422 34.5616 54.9528C34.3667 55.2586 34.2107 55.5824 34.086 55.903C33.6814 56.9426 33.5633 58.07 33.715 59.174L34.2781 63.2754C34.2781 69.1716 37.4255 73.1792 40.1028 75.2582C41.5003 76.3433 43.2249 76.9329 45.001 76.9329C46.3783 76.9329 47.7238 76.5769 48.9106 75.9117C48.5667 75.7191 48.2357 75.5018 47.922 75.2582Z" fill="#FCAD6D"></path>
    <path d="M68.9352 35.4043C64.5587 36.0007 64.1427 38.482 64.1407 39.3923C64.1404 39.5833 64.0345 39.7601 63.8629 39.8437C61.5865 40.9511 62.8137 46.2885 62.8137 46.2885C63.0423 46.3038 63.3853 46.5 63.5638 46.5865C63.6074 46.3144 63.6788 46.0467 63.7796 45.7879C63.8563 45.5906 63.9522 45.3915 64.0723 45.2032C64.2805 44.8765 64.3752 44.4913 64.347 44.106C64.2653 42.9925 64.2009 40.902 65.6708 40.2408C66.916 39.6805 68.4434 40.0049 69.4174 40.3288C70.0499 40.5393 70.7353 40.5393 71.3678 40.3288C72.3419 40.0049 73.8692 39.6805 75.1144 40.2408C76.58 40.9002 76.5198 42.9801 76.4389 44.0965C76.4107 44.4847 76.5031 44.8739 76.7127 45.203C76.8366 45.3973 76.9348 45.6034 77.0128 45.8068C77.1097 46.0598 77.1787 46.3211 77.2213 46.5863C77.4462 46.4772 77.8714 46.2549 78.1465 46.2939C78.1801 45.1269 78.2879 43.8687 78.2879 43.8687C79.5851 37.5167 73.6475 34.7623 68.9352 35.4043Z" fill="#2A428C"></path>
    <path d="M68.9352 35.405C64.5587 36.0014 64.1427 38.4827 64.1407 39.393C64.1404 39.584 64.0345 39.7608 63.8629 39.8443C61.5865 40.9517 62.8137 46.2892 62.8137 46.2892C63.0423 46.3045 63.3853 46.5007 63.5638 46.5871C63.6074 46.3151 63.6788 46.0473 63.7796 45.7886C63.8563 45.5913 63.9522 45.392 64.0723 45.2039C64.2805 44.8772 64.3752 44.4919 64.347 44.1067C64.2653 42.9932 64.2009 40.9027 65.6708 40.2414C66.916 39.6812 68.4433 40.0055 69.4174 40.3295C69.6839 40.4181 69.9597 40.4671 70.237 40.4811C70.1944 40.4082 70.1491 40.336 70.0984 40.2646C68.2209 37.6257 70.8307 35.7027 71.3345 35.3667C70.5266 35.286 69.7141 35.2988 68.9352 35.405Z" fill="#1C2E7A"></path>
    <path d="M78.5358 46.4455C78.195 46.1332 77.5159 46.2915 77.2223 46.4827C77.2866 46.8832 77.2902 47.2929 77.2347 47.6976L76.8883 50.2208C76.8883 50.4242 76.8818 50.6236 76.8701 50.8198C77.7148 51.0746 78.1346 50.3162 78.2052 49.7958C78.2356 49.5717 78.2853 49.3509 78.3543 49.1354C78.5793 48.4336 79.3899 47.2281 78.5358 46.4455Z" fill="#FCAD6D"></path>
    <path d="M62.2507 46.4455C62.5915 46.1332 63.2706 46.2915 63.5642 46.4827C63.4998 46.8832 63.4963 47.2929 63.5518 47.6976L63.8982 50.2208C63.8982 50.4242 63.9047 50.6236 63.9164 50.8198C63.0717 51.0746 62.6519 50.3162 62.5813 49.7958C62.5509 49.5717 62.5012 49.3509 62.4322 49.1354C62.2074 48.4336 61.3966 47.2281 62.2507 46.4455Z" fill="#FD995B"></path>
    <path d="M77.1173 45.7036C77.0393 45.5002 76.941 45.2941 76.8172 45.0998C76.6075 44.7706 76.5152 44.3814 76.5434 43.9933C76.6242 42.8769 76.5809 40.6933 75.1152 40.0339C73.8702 39.4736 72.3428 39.798 71.3687 40.1219C70.7362 40.3323 70.0507 40.3323 69.418 40.1219C68.444 39.7981 66.9166 39.4736 65.6716 40.0339C64.2017 40.6951 64.1624 42.8893 64.2441 44.0028C64.2725 44.3881 64.1776 44.7733 63.9694 45.1C63.8493 45.2883 63.7534 45.4874 63.6767 45.6847C63.4276 46.3244 63.355 47.0182 63.4483 47.6976L63.7947 50.2213C63.7947 53.8495 65.7316 56.3157 67.3789 57.5951C68.2389 58.2628 69.3002 58.6256 70.393 58.6256C71.4861 58.6256 72.5473 58.2628 73.4071 57.5951C75.0547 56.3157 76.9913 53.8495 76.9913 50.2213L77.3378 47.6981C77.4307 47.0252 77.3606 46.3382 77.1173 45.7036Z" fill="#F9BA8F"></path>
    <path d="M72.1906 57.5953C70.5431 56.3159 68.6064 53.8497 68.6064 50.2215L68.2599 47.6977C68.1667 47.0183 68.2393 46.3246 68.4883 45.6849C68.5651 45.4876 68.661 45.2885 68.781 45.1002C68.9893 44.7735 69.084 44.3883 69.0558 44.003C68.9818 42.9962 69.0073 41.1061 70.0992 40.2642C69.8687 40.2423 69.6401 40.1958 69.418 40.1219C68.4439 39.798 66.9166 39.4736 65.6716 40.0339C64.2017 40.6951 64.1624 42.8893 64.2441 44.0028C64.2725 44.3881 64.1776 44.7733 63.9694 45.1C63.8493 45.2883 63.7534 45.4874 63.6767 45.6847C63.4276 46.3244 63.355 47.0182 63.4483 47.6976L63.7947 50.2213C63.7947 53.8495 65.7316 56.3157 67.3789 57.5951C68.2389 58.2628 69.3002 58.6256 70.393 58.6256C71.2406 58.6256 72.0686 58.4066 72.7989 57.9973C72.5875 57.8788 72.3838 57.7452 72.1906 57.5953Z" fill="#FCAD6D"></path>
    <path d="M18.15 35.917C13.7735 36.5134 13.3576 38.9947 13.3556 39.905C13.3552 40.096 13.2494 40.2728 13.0778 40.3564C10.8013 41.4638 12.0286 46.8012 12.0286 46.8012C12.2572 46.8165 12.6 47.0127 12.7786 47.0992C12.8223 46.8271 12.8936 46.5594 12.9944 46.3006C13.0711 46.1033 13.1671 45.9042 13.2871 45.7159C13.4954 45.3893 13.5901 45.004 13.5619 44.6188C13.4801 43.5052 13.4158 41.4147 14.8856 40.7535C16.1307 40.1932 17.6582 40.5176 18.6323 40.8415C19.2648 41.052 19.9501 41.052 20.5826 40.8415C21.5567 40.5176 23.084 40.1932 24.3293 40.7535C25.7948 41.4129 25.7346 43.4928 25.6538 44.6092C25.6255 44.9974 25.7179 45.3867 25.9276 45.7157C26.0514 45.91 26.1497 46.1161 26.2277 46.3195C26.3245 46.5725 26.3935 46.8338 26.4361 47.099C26.6611 46.9899 27.0862 46.7676 27.3613 46.8066C27.3951 45.6396 27.5027 44.3814 27.5027 44.3814C28.7997 38.0294 22.8621 35.275 18.15 35.917Z" fill="#2A428C"></path>
    <path d="M18.15 35.9176C13.7735 36.514 13.3576 38.9953 13.3556 39.9056C13.3552 40.0966 13.2494 40.2734 13.0778 40.357C10.8013 41.4644 12.0286 46.8018 12.0286 46.8018C12.2572 46.8171 12.6 47.0133 12.7786 47.0998C12.8223 46.8277 12.8936 46.56 12.9944 46.3012C13.0711 46.1039 13.1671 45.9048 13.2871 45.7165C13.4954 45.3898 13.5901 45.0046 13.5619 44.6193C13.4801 43.5058 13.4158 41.4153 14.8856 40.7541C16.1307 40.1938 17.6582 40.5182 18.6323 40.8421C18.8988 40.9307 19.1746 40.9798 19.4518 40.9936C19.4093 40.9207 19.364 40.8484 19.3133 40.7771C17.4357 38.1382 20.0455 36.2152 20.5494 35.8792C19.7413 35.7989 18.929 35.8114 18.15 35.9176Z" fill="#1C2E7A"></path>
    <path d="M27.7495 46.9582C27.4086 46.6459 26.7296 46.8042 26.4362 46.9954C26.5005 47.3959 26.5041 47.8056 26.4486 48.2103L26.1021 50.7335C26.1021 50.9369 26.0957 51.1363 26.084 51.3325C26.9287 51.5873 27.3484 50.8291 27.4191 50.3085C27.4494 50.0844 27.4992 49.8636 27.5682 49.6481C27.7928 48.9463 28.6036 47.7409 27.7495 46.9582Z" fill="#FCAD6D"></path>
    <path d="M11.4656 46.9582C11.8064 46.6459 12.4855 46.8042 12.7791 46.9954C12.7147 47.3959 12.7111 47.8056 12.7667 48.2103L13.1131 50.7335C13.1131 50.9369 13.1196 51.1363 13.1313 51.3325C12.2865 51.5873 11.8668 50.8291 11.7962 50.3085C11.7658 50.0844 11.716 49.8636 11.647 49.6481C11.4221 48.9463 10.6115 47.7409 11.4656 46.9582Z" fill="#FD995B"></path>
    <path d="M26.3323 46.2163C26.2543 46.0129 26.156 45.8068 26.0322 45.6125C25.8224 45.2833 25.7302 44.8941 25.7582 44.506C25.8391 43.3896 25.7958 41.206 24.3301 40.5466C23.085 39.9863 21.5577 40.3107 20.5836 40.6346C19.9511 40.845 19.2654 40.845 18.6329 40.6346C17.6588 40.3107 16.1316 39.9863 14.8864 40.5466C13.4167 41.2078 13.3772 43.402 13.459 44.5155C13.4873 44.9008 13.3925 45.286 13.1842 45.6127C13.0642 45.801 12.9682 46.0001 12.8915 46.1974C12.6425 46.8371 12.5699 47.5309 12.6631 48.2103L13.0096 50.734C13.0096 54.3622 14.9464 56.8284 16.5938 58.1078C17.4538 58.7755 18.515 59.1383 19.6079 59.1383C20.7009 59.1383 21.7621 58.7755 22.6219 58.1078C24.2695 56.8284 26.2062 54.3624 26.2062 50.734L26.5526 48.2108C26.6455 47.538 26.5754 46.8509 26.3323 46.2163Z" fill="#F9BA8F"></path>
    <path d="M21.4055 58.1068C19.7579 56.8274 17.8212 54.3614 17.8212 50.7329L17.4748 48.2092C17.3815 47.5298 17.4541 46.8361 17.7032 46.1964C17.7799 45.9993 17.8759 45.8 17.9959 45.6117C18.2041 45.285 18.2988 44.8997 18.2706 44.5145C18.1966 43.5077 18.2221 41.6177 19.3141 40.7759C19.0835 40.7538 18.855 40.7075 18.6329 40.6336C17.6588 40.3098 16.1316 39.9853 14.8864 40.5456C13.4167 41.2068 13.3772 43.401 13.459 44.5145C13.4873 44.8997 13.3925 45.285 13.1842 45.6117C13.0642 45.8 12.9682 45.9991 12.8915 46.1964C12.6425 46.8361 12.5699 47.5298 12.6631 48.2092L13.0096 50.7329C13.0096 54.3612 14.9464 56.8274 16.5938 58.1068C17.4538 58.7745 18.515 59.1373 19.6079 59.1373C20.4554 59.1373 21.2834 58.9182 22.0137 58.5089C21.8022 58.3905 21.5984 58.2568 21.4055 58.1068Z" fill="#FCAD6D"></path>
  </symbol>
  <symbol fill="none" xmlns="http://www.w3.org/2000/svg" viewBox="0 0 88 87" id="section33">
    <path d="M44.4203 79.0168L77.1819 71.3877C83.3558 63.9344 87.0671 54.3673 87.0671 43.933C87.0671 20.1478 67.7855 0.866211 44.0004 0.866211C20.2152 0.866211 0.933594 20.1478 0.933594 43.933C0.933594 54.4674 4.71799 64.1165 10.9987 71.6002L44.4203 79.0168Z" fill="#FFC839"></path>
    <path d="M19.6701 73.9102C21.4433 75.2872 23.6318 76.0352 25.8857 76.0352C28.1396 76.0352 30.3279 75.2872 32.1011 73.9102C33.4118 72.8924 34.8096 71.5069 36.0344 69.7635C35.692 69.664 35.3457 69.5701 34.995 69.4822C34.6169 69.3875 34.2847 69.16 34.0701 68.8575C33.0811 67.4623 32.8071 65.3055 32.7535 63.7412C32.0597 64.5493 31.3316 65.225 30.636 65.7652C27.846 67.9318 23.9217 67.929 21.1352 65.7652C20.4395 65.225 19.7115 64.5491 19.0177 63.7412C18.9625 65.3401 18.6779 67.5585 17.6343 68.9494C17.4563 69.1867 17.1819 69.3806 16.853 69.4622C16.4766 69.5554 16.1054 69.657 15.7373 69.764C16.9618 71.5072 18.3594 72.8924 19.6701 73.9102Z" fill="#FCAD6D"></path>
    <path d="M25.6329 67.3839C24.0393 67.3322 22.4588 66.793 21.1352 65.7652C20.4394 65.225 19.7115 64.5491 19.0177 63.7412C18.9625 65.3401 18.6779 67.5585 17.6343 68.9494C17.4563 69.1867 17.1819 69.3806 16.853 69.4622C16.4766 69.5554 16.1054 69.657 15.7373 69.764C16.9618 71.5071 18.3594 72.8924 19.6701 73.91C20.5252 74.5739 21.4773 75.09 22.4862 75.4482C24.456 72.849 25.2849 69.6223 25.6329 67.3839Z" fill="#FD995B"></path>
    <path d="M38.5139 78.6025C40.101 75.4282 42.634 74.0617 44.4207 73.4751C43.8819 73.3171 43.4238 73.0177 42.6583 72.5862C40.4826 71.3592 38.2296 70.3808 35.7749 69.6926C34.5758 71.416 33.2 72.7811 31.9117 73.7815C30.1924 75.1165 28.0707 75.8418 25.8856 75.8418C23.7004 75.8418 21.5788 75.1167 19.8594 73.7815C18.5708 72.7809 17.1946 71.4155 15.9956 69.6914C14.2492 70.1818 12.5939 70.827 10.999 71.6C17.4525 79.2896 26.543 84.6903 36.8786 86.411C37.2149 83.6314 37.7417 80.1467 38.5139 78.6025Z" fill="#3C58A0"></path>
    <path d="M18.5648 78.6853C20.2868 77.8689 21.6044 76.6569 22.6115 75.2807C21.6254 74.9332 20.6946 74.4299 19.8595 73.7815C18.5708 72.7809 17.1946 71.4155 15.9956 69.6914C14.2492 70.1818 12.5939 70.827 10.999 71.6C13.226 74.2535 15.7673 76.6341 18.5648 78.6853Z" fill="#1C2E7A"></path>
    <path d="M60.2206 9.95984C61.2966 9.95984 62.1688 9.08761 62.1688 8.01166C62.1688 6.93571 61.2966 6.06348 60.2206 6.06348C59.1447 6.06348 58.2725 6.93571 58.2725 8.01166C58.2725 9.08761 59.1447 9.95984 60.2206 9.95984Z" fill="#4FABF7"></path>
    <path d="M53.5761 9.95984C54.6521 9.95984 55.5243 9.08761 55.5243 8.01166C55.5243 6.93571 54.6521 6.06348 53.5761 6.06348C52.5002 6.06348 51.6279 6.93571 51.6279 8.01166C51.6279 9.08761 52.5002 9.95984 53.5761 9.95984Z" fill="#4FABF7"></path>
    <path d="M46.9296 9.95984C48.0056 9.95984 48.8778 9.08761 48.8778 8.01166C48.8778 6.93571 48.0056 6.06348 46.9296 6.06348C45.8537 6.06348 44.9814 6.93571 44.9814 8.01166C44.9814 9.08761 45.8537 9.95984 46.9296 9.95984Z" fill="#4FABF7"></path>
    <path d="M74.6491 50.3633C74.6746 51.7581 74.5368 53.1865 74.3877 54.1391C73.6839 57.2411 72.6677 59.942 71.368 62.1663C70.7786 63.1749 70.0435 64.0916 69.1825 64.8912L69.0723 64.9937V65.6884C69.0723 66.4086 69.3521 67.0745 69.8285 67.6878C72.4956 67.5266 74.763 66.9862 76.5504 66.3708C78.7017 65.6299 79.6434 63.0797 78.468 61.1313C75.7003 56.5438 76.1127 50.3633 76.1127 50.3633H74.6491Z" fill="#2A428C"></path>
    <path d="M78.4672 61.1315C78.2075 60.7012 77.9758 60.2567 77.7691 59.8048C74.5479 61.6733 73.2607 59.0257 73.2607 59.0257C73.2607 59.0257 73.1775 58.9037 73.025 58.6768C72.5382 59.9419 71.9852 61.1087 71.367 62.1664C70.7776 63.175 70.0423 64.0917 69.1815 64.8913L69.0713 64.9938V65.6885C69.0713 66.4087 69.3511 67.0747 69.8275 67.6878C72.4946 67.5266 74.762 66.9863 76.5494 66.3709C78.7009 65.6301 79.6426 63.0797 78.4672 61.1315Z" fill="#1C2E7A"></path>
    <path d="M51.3561 66.3714C53.1433 66.9868 55.4108 67.527 58.078 67.6884C58.5545 67.0751 58.8343 66.409 58.8343 65.689V64.8358L58.7289 64.734C57.941 63.9734 57.2622 63.1098 56.7113 62.1671C55.4108 59.9412 54.395 57.2415 53.6922 54.143C53.5382 53.2446 53.3992 51.7927 53.4301 50.3643H51.794C51.794 50.3643 52.2063 56.5445 49.4387 61.1323C48.263 63.0801 49.2049 65.6305 51.3561 66.3714Z" fill="#1C2E7A"></path>
    <path d="M70.2888 32.5528C68.6305 31.6973 66.5686 31.1035 64.0393 31.1035C61.51 31.1035 59.448 31.6971 57.7897 32.5528C54.1597 34.4256 51.9229 38.1443 51.9229 42.1568V47.1066L51.923 47.1082C52.4955 47.0949 53.1289 47.2824 53.5369 47.5544C53.6873 47.0623 53.893 46.6364 54.1713 46.323C54.4216 46.0409 54.5787 45.6918 54.5898 45.3184C54.6325 43.8895 55.0075 40.5126 57.5238 39.22C58.2248 38.8599 59.0814 39.1346 59.4751 39.8173C60.9909 42.4453 64.5265 45.9083 72.3892 44.4325C72.9468 44.3279 73.4708 44.7424 73.4882 45.3096C73.4884 45.3126 73.4884 45.3156 73.4884 45.3186C73.4995 45.692 73.6566 46.0411 73.9071 46.3232C74.1852 46.6366 74.391 47.0627 74.5413 47.5545C74.9493 47.2826 75.5827 47.095 76.1552 47.1084L76.1553 47.1068V42.157C76.1557 38.1443 73.9189 34.4256 70.2888 32.5528Z" fill="#2A428C"></path>
    <path d="M63.8871 43.5507C59.9901 36.1058 67.3119 31.4673 67.3119 31.4673C66.3199 31.2379 65.2319 31.1045 64.0383 31.1045C61.509 31.1045 59.4471 31.6981 57.7888 32.5538C54.1587 34.4266 51.9219 38.1452 51.9219 42.1578V47.1076L51.9221 47.1092C52.4946 47.0958 53.1279 47.2834 53.5359 47.5553C53.6864 47.0633 53.892 46.6374 54.1701 46.324C54.4204 46.0419 54.5776 45.6928 54.5888 45.3194C54.6315 43.8905 55.0065 40.5135 57.5228 39.221C58.2238 38.8608 59.0804 39.1356 59.4741 39.8183C60.2935 41.239 61.7053 42.9024 64.0699 43.8989C64.0089 43.7825 63.9479 43.6667 63.8871 43.5507Z" fill="#1C2E7A"></path>
    <path d="M53.4371 54.191C53.4371 54.191 52.7799 50.0318 53.5368 47.5549C52.85 47.0972 51.5231 46.8736 50.9263 47.457C49.7044 48.6514 50.5997 50.4553 51.0281 51.5947C51.1596 51.9445 51.2445 52.2984 51.2828 52.6529C51.3661 53.4232 51.7838 54.5506 53.5155 54.5241C53.4895 54.413 53.4628 54.3038 53.4371 54.191Z" fill="#FD995B"></path>
    <path d="M77.1515 47.4561C76.5548 46.8726 75.2278 47.0961 74.541 47.554C75.2979 50.0309 74.6407 54.1901 74.6407 54.1901C74.615 54.3029 74.5883 54.4121 74.5621 54.5232C76.2939 54.5497 76.7114 53.4222 76.7949 52.652C76.8332 52.2974 76.9181 51.9436 77.0496 51.5938C77.4782 50.4544 78.3734 48.6505 77.1515 47.4561Z" fill="#FCAD6D"></path>
    <path d="M23.5881 31.2467C16.6906 32.1865 16.0349 36.0972 16.032 37.532C16.0313 37.8329 15.8646 38.1117 15.5941 38.2434C12.0062 39.9887 13.9407 48.4007 13.9407 48.4007C14.301 48.4248 14.8414 48.734 15.1226 48.8702C15.1915 48.4415 15.304 48.0196 15.4628 47.6116C15.5837 47.3008 15.7351 46.9867 15.9242 46.6902C16.2524 46.1755 16.4018 45.5682 16.3571 44.961C16.2281 43.2062 16.1271 39.9113 18.4435 38.8691C20.4059 37.9862 22.8132 38.4974 24.3483 39.0078C25.3454 39.3393 26.4252 39.3393 27.4222 39.0078C28.9573 38.4974 31.3647 37.986 33.3271 38.8691C35.6368 39.9083 35.5421 43.1865 35.4145 44.9461C35.3702 45.5578 35.5156 46.1713 35.8462 46.69C36.0415 46.9962 36.1964 47.3209 36.3192 47.6415C36.472 48.0402 36.5806 48.4518 36.6478 48.8702C37.0023 48.6985 37.6724 48.3481 38.1059 48.4093C38.1589 46.5699 38.3288 44.5871 38.3288 44.5871C40.3726 34.5759 31.0148 30.2348 23.5881 31.2467Z" fill="#2A428C"></path>
    <path d="M23.5881 31.2472C16.6906 32.1869 16.0349 36.0977 16.032 37.5324C16.0313 37.8333 15.8646 38.1121 15.5941 38.2438C12.0062 39.9891 13.9407 48.4011 13.9407 48.4011C14.301 48.4252 14.8414 48.7344 15.1226 48.8706C15.1915 48.4419 15.304 48.02 15.4628 47.612C15.5837 47.3013 15.7351 46.9871 15.9242 46.6906C16.2524 46.1759 16.4018 45.5686 16.3571 44.9614C16.2281 43.2066 16.1271 39.9118 18.4435 38.8696C20.4059 37.9866 22.8132 38.4978 24.3483 39.0083C24.7683 39.1478 25.203 39.2252 25.64 39.2471C25.573 39.1324 25.5015 39.0183 25.4215 38.9058C22.4624 34.7468 26.5757 31.7162 27.3695 31.1865C26.0963 31.0598 24.8159 31.0798 23.5881 31.2472Z" fill="#1C2E7A"></path>
    <path d="M38.7169 48.6481C38.1797 48.1558 37.1096 48.4054 36.6469 48.7068C36.7483 49.3381 36.7541 49.9839 36.6664 50.6215L36.1204 54.5982C36.1204 54.9188 36.1104 55.2332 36.0918 55.5423C37.4232 55.9439 38.0845 54.7486 38.1959 53.9282C38.2439 53.5751 38.3223 53.2271 38.4311 52.8875C38.7853 51.7814 40.0629 49.8816 38.7169 48.6481Z" fill="#FCAD6D"></path>
    <path d="M13.0521 48.6481C13.5893 48.1558 14.6594 48.4054 15.1221 48.7068C15.0206 49.3381 15.0148 49.9839 15.1026 50.6215L15.6485 54.5982C15.6485 54.9188 15.6587 55.2332 15.6772 55.5423C14.3458 55.9439 13.6844 54.7486 13.5731 53.9282C13.5251 53.5751 13.4467 53.2271 13.3379 52.8875C12.9837 51.7814 11.7061 49.8816 13.0521 48.6481Z" fill="#FD995B"></path>
    <path d="M36.4822 47.4779C36.3593 47.1572 36.2044 46.8326 36.0091 46.5262C35.6785 46.0075 35.5331 45.394 35.5774 44.7823C35.7048 43.0227 35.6365 39.5814 33.3267 38.5422C31.3643 37.6593 28.9573 38.1704 27.4222 38.6809C26.4254 39.0124 25.3448 39.0124 24.3478 38.6809C22.8127 38.1704 20.4056 37.6593 18.4433 38.5422C16.1269 39.5844 16.0648 43.0426 16.1937 44.7974C16.2383 45.4045 16.0889 46.0117 15.7607 46.5265C15.5716 46.8233 15.4204 47.1372 15.2995 47.448C14.9069 48.4563 14.7925 49.5496 14.9396 50.6203L15.4858 54.5979C15.4858 60.3162 18.5384 64.2029 21.1349 66.2193C22.4901 67.2717 24.1627 67.8435 25.8852 67.8435C27.6077 67.8435 29.2802 67.2719 30.6355 66.2193C33.232 64.2031 36.2846 60.3162 36.2846 54.5979L36.8305 50.6212C36.9759 49.5611 36.8657 48.4782 36.4822 47.4779Z" fill="#F9BA8F"></path>
    <path d="M28.7171 66.2193C26.1206 64.2031 23.068 60.3162 23.068 54.5979L22.5219 50.6203C22.3749 49.5496 22.4893 48.4563 22.8817 47.448C23.0026 47.1372 23.154 46.8233 23.3429 46.5265C23.6711 46.0119 23.8205 45.4045 23.7759 44.7974C23.6593 43.2106 23.6994 40.2318 25.4203 38.905C25.0572 38.8704 24.6966 38.7973 24.3468 38.6809C22.8117 38.1704 20.4046 37.6593 18.4423 38.5422C16.1259 39.5844 16.0638 43.0426 16.1927 44.7974C16.2373 45.4045 16.0879 46.0117 15.7597 46.5265C15.5706 46.8233 15.4194 47.1372 15.2985 47.448C14.906 48.4563 14.7915 49.5496 14.9387 50.6203L15.4848 54.5979C15.4848 60.3162 18.5374 64.2029 21.1339 66.2193C22.4892 67.2717 24.1617 67.8435 25.8842 67.8435C27.22 67.8435 28.5248 67.4983 29.6758 66.8532C29.3425 66.6665 29.0216 66.4557 28.7171 66.2193Z" fill="#FCAD6D"></path>
    <path d="M46.8249 24.3445C47.237 23.3504 46.7651 22.2103 45.7709 21.7983C44.7768 21.3862 43.6368 21.858 43.2247 22.8522C42.8126 23.8464 43.2845 24.9864 44.2786 25.3985C45.2728 25.8106 46.4128 25.3387 46.8249 24.3445Z" fill="#E9EFFF"></path>
    <path d="M36.4131 23.5947C36.4131 24.6706 37.2853 25.5429 38.3613 25.5429C39.4372 25.5429 40.3095 24.6706 40.3095 23.5947C40.3095 22.5187 39.4372 21.6465 38.3613 21.6465C37.2851 21.6467 36.4131 22.5189 36.4131 23.5947Z" fill="#E9EFFF"></path>
    <path d="M33.529 24.3465C33.9411 23.3523 33.4692 22.2123 32.475 21.8002C31.4809 21.3881 30.3409 21.86 29.9288 22.8542C29.5167 23.8484 29.9886 24.9884 30.9827 25.4005C31.9769 25.8125 33.1169 25.3407 33.529 24.3465Z" fill="#E9EFFF"></path>
    <path d="M53.1095 71.0977C55.0315 74.3869 57.9421 76.945 61.5268 78.4959C63.1324 79.1903 64.9734 79.1905 66.5786 78.4959C70.1633 76.945 73.0739 74.3869 74.9959 71.0977C75.0725 70.9667 75.1474 70.8329 75.2225 70.6995C72.2115 69.5325 69.431 67.877 69.431 65.7167C69.431 64.9568 69.431 65.1844 69.431 64.6924C68.106 65.877 65.8338 67.3861 63.9624 67.4314C62.0911 67.3861 59.8189 65.877 58.4939 64.6924C58.4939 66.1051 58.8688 67.8055 54.4286 69.9612C53.9301 70.2033 53.3983 70.4315 52.8525 70.6459C52.9376 70.7973 53.0227 70.949 53.1095 71.0977Z" fill="#FCAD6D"></path>
    <path d="M58.4939 64.6924C58.4939 66.1051 58.8688 67.8055 54.4286 69.9612C53.9301 70.2033 53.3983 70.4315 52.8525 70.6459C52.9376 70.7974 53.0227 70.9491 53.1095 71.0979C54.4114 73.3259 56.1681 75.2169 58.2794 76.6882C61.842 74.071 63.2004 70.0664 63.7188 67.4142C61.8972 67.2539 59.7622 65.8262 58.4939 64.6924Z" fill="#FD995B"></path>
    <path d="M44 86.9992C57.3507 86.9992 69.2819 80.9237 77.1815 71.3872C76.3966 71.1364 75.59 70.8523 74.807 70.5344C74.7067 70.7147 74.6054 70.8936 74.5026 71.0698C72.6666 74.2119 69.8862 76.6556 66.4618 78.1372C64.9283 78.8006 63.1698 78.8006 61.6359 78.1372C58.2117 76.6558 55.4312 74.2119 53.5952 71.0698C53.4821 70.8762 53.3705 70.6801 53.2607 70.4814C49.7092 71.9453 45.3236 72.7961 45.3052 72.8007C43.6982 73.1092 40.1713 74.2316 38.1616 78.2506C37.3627 79.8485 36.8263 83.5237 36.4922 86.3457C38.9303 86.7744 41.4388 86.9992 44 86.9992Z" fill="#FC90CE"></path>
    <path d="M55.9093 78.0511C56.9248 77.6062 57.8134 77.0622 58.5911 76.4512C56.5483 75.04 54.8508 73.2185 53.5952 71.0698C53.4821 70.8762 53.3705 70.6801 53.2607 70.4814C49.7092 71.9454 45.3236 72.7961 45.3052 72.8007C43.6982 73.1092 40.1713 74.2316 38.1616 78.2506C37.3627 79.8485 36.8263 83.5237 36.4922 86.3457C38.9304 86.7746 41.439 86.9994 44.0002 86.9994C45.3197 86.9994 46.6249 86.9377 47.9143 86.8215C47.9533 81.3491 48.4958 81.2996 55.9093 78.0511Z" fill="#F964B2"></path>
    <path d="M73.5753 45.316C73.5698 45.1343 73.5584 44.9145 73.5371 44.669C73.4733 44.5769 73.397 44.4925 73.3077 44.4206C73.0365 44.2025 72.6835 44.1144 72.3418 44.1784C64.8444 45.5855 61.3293 42.5132 59.6996 39.6882C59.402 39.1721 58.8865 38.8613 58.34 38.8105C57.8773 38.9389 57.4523 39.131 57.0664 39.388C54.8695 40.8508 54.5426 44.0209 54.5039 45.316C54.4939 45.6563 54.3566 45.9849 54.1068 46.2661C52.7311 47.8163 53.0324 52.3452 53.3534 54.2099C54.0643 57.3472 55.0938 60.0827 56.4131 62.3408C57.7525 64.6332 59.781 66.4159 62.2791 67.4968C63.3981 67.9807 64.6809 67.9807 65.7998 67.4968C68.298 66.4159 70.3263 64.6332 71.6658 62.3408C72.985 60.0834 74.0146 57.3477 74.7268 54.2044C75.0351 52.2443 75.3635 47.8343 73.972 46.2663C73.7226 45.9847 73.5855 45.6562 73.5753 45.316Z" fill="#F9BA8F"></path>
    <path d="M65.6076 62.3405C64.2882 60.0824 63.2587 57.3469 62.548 54.2097C62.227 52.345 61.9257 47.8162 63.3014 46.266C63.551 45.9847 63.6883 45.6564 63.6985 45.316C63.7111 44.8887 63.756 44.257 63.8882 43.5501C61.8301 42.6064 60.5234 41.1161 59.6996 39.6882C59.402 39.1721 58.8865 38.8613 58.3402 38.8105C57.8775 38.9389 57.4525 39.131 57.0664 39.388C54.8695 40.8508 54.5426 44.0211 54.5039 45.316C54.4937 45.6564 54.3566 45.9849 54.1068 46.266C52.7311 47.8162 53.0324 52.345 53.3534 54.2097C54.0641 57.347 55.0938 60.0826 56.4131 62.3405C57.7525 64.6328 59.781 66.4156 62.2791 67.4965C63.3981 67.9804 64.6809 67.9804 65.7998 67.4965C66.8311 67.0502 67.781 66.4826 68.6367 65.8106C67.4198 64.855 66.3941 63.6864 65.6076 62.3405Z" fill="#FCAD6D"></path>
  </symbol>
</svg>